<svg width="128" height="120" viewBox="0 0 128 120" fill="none" xmlns="http://www.w3.org/2000/svg" xmlns:xlink="http://www.w3.org/1999/xlink">
<circle cx="56" cy="56" r="56" fill="#C4D0FB"/>
<path d="M56,28.992C44.754,28.992 35.636,38.11 35.636,49.356L35.636,51.429C33.573,51.775 32,53.57 32,55.732L32,60.719C32,62.925 33.637,64.749 35.762,65.042C36.557,72.183 41.045,78.21 47.273,81.168L47.273,87.862C31.87,88.691 19.636,101.443 19.636,117.053L92.364,117.053C92.364,101.443 80.13,88.691 64.727,87.862L64.727,81.168C70.955,78.21 75.443,72.183 76.238,65.042C78.363,64.749 80,62.925 80,60.719L80,55.732C80,53.57 78.427,51.775 76.364,51.429L76.364,49.356C76.364,38.11 67.247,28.992 56,28.992Z" clip-rule="evenodd" fill-rule="evenodd" fill="#D0C6AC"/>
<rect  x="8" y="28.992" width="96" height="88.06" fill="#FFDBB4"/>
<path d="M35.636,62.764L35.636,65.651C35.636,76.898 44.753,86.015 56,86.015C67.247,86.015 76.364,76.898 76.364,65.651L76.364,62.764C76.364,74.011 67.247,83.128 56,83.128C44.753,83.128 35.636,74.011 35.636,62.764Z" clip-rule="evenodd" fill-rule="evenodd" fill="#000000" fill-opacity="0.1"/>
<path d="M56.182,96.058C62.91,96.058 68.364,92.587 68.364,88.306C68.364,88.305 68.364,88.303 68.364,88.302C82.01,90.761 92.364,102.698 92.364,117.053L19.636,117.053C19.636,102.57 30.174,90.549 44,88.239C44,88.261 44,88.284 44,88.306C44,92.587 49.454,96.058 56.182,96.058Z" clip-rule="evenodd" fill-rule="evenodd" fill="#E6E6E6"/>
<rect  x="8" y="77.353" width="96" height="39.699" fill="#FF4072"/>
<g opacity="0.6" style="isolation:isolate">
<path d="M70.595,88.847C70.595,94.212 64.142,98.561 56.182,98.561C48.222,98.561 41.769,94.212 41.769,88.847C41.769,83.483 48.222,79.134 56.182,79.134C64.142,79.134 70.595,83.483 70.595,88.847Z" fill="#000000" fill-opacity="0.16"/>
</g>
<path d="M50.909,70.135C50.909,72.074 53.148,73.383 56,73.383C58.852,73.383 61.091,72.074 61.091,70.135C61.091,69.737 60.746,69.414 60.364,69.414C59.894,69.414 59.684,69.74 59.636,70.135C59.185,71.196 58.067,71.838 56,71.94C53.933,71.838 52.815,71.196 52.364,70.135C52.316,69.74 52.106,69.414 51.636,69.414C51.254,69.414 50.909,69.737 50.909,70.135Z" fill="#000000" fill-opacity="0.6"/>
<path d="M51.636,62.917C51.636,64.512 53.59,65.804 56,65.804L56,65.804C58.41,65.804 60.364,64.512 60.364,62.917Z" clip-rule="evenodd" fill-rule="evenodd" fill="#000000" fill-opacity="0.16"/>
<path d="M48.727,56.421C48.727,57.617 47.75,58.586 46.545,58.586C45.34,58.586 44.364,57.617 44.364,56.421C44.364,55.225 45.34,54.256 46.545,54.256C47.75,54.256 48.727,55.225 48.727,56.421Z" fill="#000000" fill-opacity="0.6"/>
<path d="M67.636,56.421C67.636,57.617 66.66,58.586 65.455,58.586C64.25,58.586 63.273,57.617 63.273,56.421C63.273,55.225 64.25,54.256 65.455,54.256C66.66,54.256 67.636,55.225 67.636,56.421Z" fill="#000000" fill-opacity="0.6"/>
<path d="M41.32,51.787C42.744,49.798 46.646,48.684 50.008,49.503C50.398,49.598 50.792,49.361 50.888,48.974C50.984,48.587 50.745,48.196 50.355,48.101C46.451,47.149 41.932,48.44 40.134,50.95C39.902,51.275 39.979,51.726 40.306,51.957C40.633,52.188 41.087,52.111 41.32,51.787Z" fill="#000000" fill-opacity="0.6"/>
<path d="M62.411,51.787C63.835,49.798 67.737,48.684 71.099,49.503C71.489,49.598 71.883,49.361 71.979,48.974C72.075,48.587 71.836,48.196 71.446,48.101C67.542,47.149 63.023,48.44 61.225,50.95C60.993,51.275 61.069,51.726 61.397,51.957C61.724,52.188 62.178,52.111 62.411,51.787Z" transform="rotate(360 66.545 49.939)" fill="#000000" fill-opacity="0.6"/>
<path d="M79.908,29.662C78.039,28.279 75.829,27.094 73.523,26.639C71.179,26.176 69.756,26.064 67.449,26.612C66.855,26.754 66.654,26.894 66.132,26.559C65.692,26.276 62.618,23.134 53.252,24.878C43.785,26.641 40.972,40.785 37.46,41.323C36.195,41.517 34.631,41.184 34.582,40.411C33.14,42.589 32.761,45.466 33.372,48.017C33.898,50.213 35.007,52.277 37.004,53.48C38.723,54.514 41.098,54.965 43.084,54.774C43.988,54.688 44.81,54.499 45.642,54.137C46.645,53.7 47.444,52.913 48.428,52.497C47.401,53.381 46.282,54.16 45.092,54.814C44.496,55.141 43.89,55.366 43.232,55.544C42.783,55.665 41.865,56.079 41.43,55.971C44.269,56.475 46.943,56.035 49.546,54.829C50.721,54.285 51.851,53.627 52.889,52.853C53.919,52.084 55.105,51.298 55.911,50.287C55.572,50.721 56.164,50.075 56.242,49.996C56.463,49.773 56.68,49.544 56.892,49.312C57.257,48.914 57.618,48.508 57.958,48.089C58.683,47.191 59.358,46.254 59.961,45.272C60.57,44.278 63,40.265 63.733,39.321C63.041,41.381 62.286,43.442 61.403,45.43C63.117,44.899 64.779,43.429 65.874,42.058C67.108,40.515 67.838,38.714 68.095,36.766C69.486,40.525 72.745,43.489 76.107,45.534C75.379,44.187 74.269,43.049 73.543,41.68C76.885,45.047 82.476,46.694 83.941,51.631C84.316,49.915 85.524,48.535 85.885,46.783C86.287,44.839 86.575,42.774 86.511,40.787C86.367,36.369 83.372,32.225 79.908,29.662Z" clip-rule="evenodd" fill-rule="evenodd" transform="rotate(360 59.806 40.265)" fill="#28354B"/>
<rect  x="8" y="16" width="96" height="101.053" fill="#2C1B18"/>
<path d="M74,80L74,120L127.333,120L127.333,80L74,80Z" clip-rule="evenodd" fill-rule="evenodd" fill="#E31D1C"/>
<path d="M71.5,94.167L74,94.167L88.167,94.167L88.167,80L88.167,77.5L90.667,77.5L97.333,77.5L99.833,77.5L99.833,80L99.833,94.167L127.333,94.167L129.833,94.167L129.833,96.667L129.833,103.333L129.833,105.833L127.333,105.833L99.833,105.833L99.833,120L99.833,122.5L97.333,122.5L90.667,122.5L88.167,122.5L88.167,120L88.167,105.833L74,105.833L71.5,105.833L71.5,103.333L71.5,96.667" clip-rule="evenodd" fill-rule="evenodd" fill="#2E42A5"/>
<path d="M90.667,80L97.333,80L97.333,96.667L127.333,96.667L127.333,103.333L97.333,103.333L97.333,120L90.667,120L90.667,103.333L74,103.333L74,96.667L90.667,96.667L90.667,80M71.5,94.167L74,94.167L88.167,94.167L88.167,80L88.167,77.5L90.667,77.5L97.333,77.5L99.833,77.5L99.833,80L99.833,94.167L127.333,94.167L129.833,94.167L129.833,96.667L129.833,103.333L129.833,105.833L127.333,105.833L99.833,105.833L99.833,120L99.833,122.5L97.333,122.5L90.667,122.5L88.167,122.5L88.167,120L88.167,105.833L74,105.833L71.5,105.833L71.5,103.333L71.5,96.667" clip-rule="evenodd" fill-rule="evenodd" fill="#F7FCFF"/>
<rect  x="74" y="80" width="53.333" height="40" rx="4" fill="url(#pf_0_i_1_2388;80_198)" style="mix-blend-mode:overlay"/>
<defs>
<linearGradient id="pf_0_i_1_2388;80_198" x1="100.667" y1="80" x2="100.667" y2="120" gradientUnits="userSpaceOnUse">
<stop stop-color="#FFFFFF" stop-opacity="0.7"/>
<stop offset="1" stop-color="#000000" stop-opacity="0.3"/>
</linearGradient>
</defs>
</svg>
