<svg width="126" height="122" viewBox="0 0 126 122" fill="none" xmlns="http://www.w3.org/2000/svg" xmlns:xlink="http://www.w3.org/1999/xlink">
<mask id="mask_0_i_1_2412;80_291" style="mask-type:alpha" maskUnits="userSpaceOnUse" x="74" y="80" width="26" height="20">
<path d="M74,80L74,120L126,120L126,80L74,80Z" clip-rule="evenodd" fill-rule="evenodd" fill="#F7FCFF"/>
</mask>
<rect  x="0" y="0" width="112" height="112" rx="80" fill="#C9F2E9"/>
<circle cx="56" cy="56" r="56" fill="#C9F2E9"/>
<path d="M56,27.746C44.191,27.746 34.618,37.319 34.618,49.127L34.618,51.482C32.451,51.845 30.8,53.73 30.8,56L30.8,61.346C30.8,63.656 32.511,65.568 34.735,65.882C35.524,73.444 40.255,79.834 46.836,82.961L46.836,90.04C30.645,91.026 17.818,104.469 17.818,120.909L94.182,120.909C94.182,104.47 81.355,91.026 65.164,90.04L65.164,82.961C71.745,79.834 76.476,73.444 77.265,65.882C79.489,65.568 81.2,63.656 81.2,61.346L81.2,56C81.2,53.73 79.549,51.845 77.382,51.482L77.382,49.127C77.382,37.319 67.809,27.746 56,27.746Z" clip-rule="evenodd" fill-rule="evenodd" fill="#D0C6AC"/>
<rect  x="5.6" y="27.746" width="100.8" height="93.164" fill="#FFCCD7"/>
<path d="M34.618,63.637L34.618,66.692C34.618,78.5 44.191,88.073 56,88.073C67.809,88.073 77.382,78.5 77.382,66.692L77.382,63.637C77.382,75.446 67.809,85.019 56,85.019C44.191,85.019 34.618,75.446 34.618,63.637Z" clip-rule="evenodd" fill-rule="evenodd" fill="#000000" fill-opacity="0.1"/>
<path d="M56,100.692C61.694,100.692 66.309,96.419 66.309,91.147C66.309,90.808 66.29,90.473 66.253,90.143C81.925,91.642 94.182,104.844 94.182,120.909L17.818,120.909C17.818,104.844 30.075,91.642 45.747,90.143C45.71,90.473 45.691,90.808 45.691,91.147C45.691,96.419 50.306,100.692 56,100.692Z" clip-rule="evenodd" fill-rule="evenodd" fill="#909292"/>
<rect  x="5.6" y="78.909" width="100.8" height="42" fill="#909292"/>
<path d="M68.08,120.909C69.379,116.297 70.127,110.871 70.127,105.064C70.127,99.756 69.502,94.766 68.403,90.425C83.032,92.868 94.182,105.586 94.182,120.909L68.08,120.909ZM44.302,120.909L17.818,120.909C17.818,105.448 29.171,92.638 43.996,90.361C42.886,94.717 42.255,99.73 42.255,105.064C42.255,110.871 43.003,116.297 44.302,120.909Z" clip-rule="evenodd" fill-rule="evenodd" fill="#0C1626"/>
<path d="M74.709,111.745L75.808,110.921C77.864,109.379 80.698,109.404 82.727,110.982L82.727,110.982L74.709,111.745Z" clip-rule="evenodd" fill-rule="evenodd" fill="#E6E6E6"/>
<path d="M44.164,89.6C41.873,100.673 46.073,120.909 46.073,120.909L39.964,120.909L34.618,107.164L36.909,103.727L34.618,101.436L41.873,89.982C41.873,89.982 43.034,89.621 44.164,89.6Z" clip-rule="evenodd" fill-rule="evenodd" fill="#0C092A"/>
<path d="M75.473,89.6C73.182,100.673 77.382,120.909 77.382,120.909L71.273,120.909L65.927,107.164L68.218,103.727L65.927,101.436L73.182,89.982C73.182,89.982 74.343,89.621 75.473,89.6Z" clip-rule="evenodd" fill-rule="evenodd" transform="rotate(360 71.655 105.255)" fill="#0C092A"/>
<path d="M46.836,87.133C44.251,88.888 42.636,91.378 42.636,94.139C42.636,96.965 44.327,99.506 47.02,101.267L49.288,99.48L51.036,99.606L50.655,98.403L50.684,98.38C48.355,97.18 46.836,95.213 46.836,92.989C46.836,92.989 46.836,92.989 46.836,92.989L46.836,87.133ZM65.164,92.989C65.164,92.989 65.164,92.989 65.164,92.989C65.164,95.213 63.645,97.18 61.316,98.38L61.345,98.403L60.964,99.606L62.712,99.48L64.981,101.267C67.673,99.506 69.364,96.965 69.364,94.139C69.364,91.378 67.749,88.888 65.164,87.133L65.164,92.989Z" clip-rule="evenodd" fill-rule="evenodd" fill="#0C092A"/>
<path d="M50.655,71.272C50.655,73.323 53.006,74.709 56,74.709C58.994,74.709 61.345,73.323 61.345,71.272C61.345,70.851 60.983,70.509 60.582,70.509C60.088,70.509 59.868,70.854 59.818,71.272C59.344,72.394 58.17,73.073 56,73.182C53.83,73.073 52.656,72.394 52.182,71.272C52.132,70.854 51.912,70.509 51.418,70.509C51.017,70.509 50.655,70.851 50.655,71.272Z" fill="#0C092A"/>
<path d="M51.418,63.636C51.418,65.323 53.47,66.691 56,66.691L56,66.691C58.53,66.691 60.582,65.323 60.582,63.636Z" clip-rule="evenodd" fill-rule="evenodd" fill="#000000" fill-opacity="0.16"/>
<path d="M48.364,56.763C48.364,58.028 47.338,59.054 46.073,59.054C44.808,59.054 43.782,58.028 43.782,56.763C43.782,55.498 44.808,54.472 46.073,54.472C47.338,54.472 48.364,55.498 48.364,56.763Z" fill="#0C092A"/>
<path d="M68.218,56.763C68.218,58.028 67.193,59.054 65.927,59.054C64.662,59.054 63.636,58.028 63.636,56.763C63.636,55.498 64.662,54.472 65.927,54.472C67.193,54.472 68.218,55.498 68.218,56.763Z" fill="#0C092A"/>
<path d="M40.586,51.86C42.081,49.757 46.179,48.577 49.709,49.444C50.118,49.545 50.532,49.294 50.632,48.885C50.733,48.475 50.483,48.062 50.073,47.961C45.974,46.954 41.228,48.32 39.341,50.975C39.097,51.319 39.177,51.796 39.521,52.04C39.865,52.284 40.342,52.204 40.586,51.86Z" fill="#0C092A"/>
<path d="M62.732,51.86C64.226,49.757 68.324,48.577 71.854,49.444C72.264,49.545 72.677,49.294 72.778,48.885C72.879,48.475 72.628,48.062 72.218,47.961C68.119,46.954 63.374,48.32 61.487,50.975C61.242,51.319 61.323,51.796 61.667,52.04C62.01,52.284 62.487,52.204 62.732,51.86Z" transform="rotate(360 67.073 49.905)" fill="#0C092A"/>
<path d="M56.193,77.321C51.798,77.465 49.837,79.566 48.36,77.431C47.252,75.829 47.716,73.134 48.751,71.617C50.225,69.46 52.224,70.503 54.459,70.257C55.066,70.19 55.677,70.021 56.193,69.745C56.709,70.021 57.319,70.19 57.927,70.257C60.162,70.503 62.161,69.46 63.634,71.617C64.67,73.134 65.133,75.829 64.025,77.431C62.549,79.566 60.588,77.177 56.193,77.321ZM77.531,51.418C76.224,56.792 75.623,62.275 74.675,67.711C74.477,68.844 74.261,69.973 74.031,71.101C73.983,71.338 73.936,72.217 73.702,72.328C72.995,72.666 71.555,70.871 71.17,70.465C70.203,69.447 69.243,68.42 68.065,67.622C65.685,66.008 62.898,65.053 59.998,64.827C58.784,64.732 57.144,64.897 56,65.588C54.857,64.897 53.216,64.732 52.002,64.827C49.102,65.053 46.315,66.008 43.935,67.622C42.757,68.42 41.798,69.447 40.83,70.465C40.445,70.871 39.005,72.666 38.298,72.328C38.065,72.217 38.017,71.338 37.969,71.101C37.739,69.973 37.523,68.844 37.325,67.711C36.377,62.275 35.777,56.792 34.469,51.418C34.089,51.418 33.755,58.576 33.712,59.243C33.539,61.952 33.338,64.601 33.596,67.312C34.04,71.989 34.503,77.853 38.067,81.424C41.287,84.651 45.962,85.326 49.995,87.363C50.514,87.625 51.202,87.949 51.945,88.214C52.727,88.811 54.279,89.218 56.067,89.218C57.941,89.218 59.557,88.771 60.297,88.125C60.946,87.879 61.543,87.597 62.006,87.363C66.038,85.326 70.713,84.651 73.933,81.424C77.497,77.853 77.96,71.989 78.405,67.312C78.662,64.601 78.461,61.952 78.288,59.243C78.245,58.576 77.912,51.418 77.531,51.418Z" clip-rule="evenodd" fill-rule="evenodd" fill="#0C092A"/>
<rect  x="23.927" y="41.491" width="64.145" height="58.036" fill="#0C092A"/>
<path d="M41.206,33.863C41.253,33.842 41.136,33.834 40.856,33.839C41.197,33.838 41.313,33.846 41.206,33.863M38.1,27.86C38.099,27.853 38.106,27.918 38.1,27.86ZM79.201,41.019C79.1,39.753 78.922,38.494 78.622,37.257C78.383,36.273 78.057,35.335 77.672,34.397C77.439,33.83 76.896,33.051 76.832,32.44C76.769,31.837 77.239,31.17 77.34,30.469C77.437,29.786 77.42,29.068 77.28,28.392C76.962,26.856 75.908,25.428 74.28,25.027C73.917,24.938 73.149,25.048 72.892,24.837C72.598,24.594 72.393,23.767 72.126,23.435C71.366,22.49 70.181,21.881 68.931,22.094C68.01,22.25 68.539,22.44 67.849,21.898C67.465,21.597 67.178,21.137 66.806,20.811C66.245,20.321 65.603,19.902 64.938,19.558C63.198,18.658 61.214,18.003 59.27,17.684C55.725,17.102 51.941,17.61 48.504,18.532C46.794,18.99 45.073,19.573 43.485,20.343C42.804,20.673 42.411,20.947 41.701,21.033C40.583,21.169 39.635,21.162 38.576,21.637C35.317,23.096 33.849,26.481 35.117,29.721C35.372,30.373 35.718,30.945 36.194,31.471C36.775,32.113 36.985,31.987 36.484,32.725C35.737,33.828 35.106,35.005 34.593,36.227C33.245,39.434 33.02,43.047 33.108,46.469C33.138,47.666 33.19,48.879 33.379,50.065C33.46,50.578 33.483,51.544 33.868,51.925C34.063,52.118 34.342,52.226 34.62,52.149C35.272,51.968 35.048,51.486 35.063,51.039C35.139,48.793 35.036,46.805 35.571,44.586C35.965,42.946 36.623,41.457 37.475,39.991C38.559,38.126 39.729,36.488 41.22,34.891C41.57,34.516 41.647,34.357 42.117,34.329C42.472,34.309 42.993,34.553 43.339,34.637C44.102,34.823 44.866,35.007 45.643,35.132C47.071,35.362 48.485,35.377 49.925,35.332C52.761,35.244 55.609,35.045 58.358,34.331C60.184,33.856 61.802,33.005 63.551,32.381C63.582,32.37 64.021,32.058 64.098,32.071C64.205,32.088 64.852,32.768 64.962,32.853C65.812,33.52 66.744,33.8 67.661,34.316C68.793,34.952 67.697,34.042 68.321,34.835C68.503,35.065 68.596,35.494 68.742,35.755C69.206,36.589 69.852,37.321 70.625,37.902C71.371,38.464 72.493,38.735 72.874,39.466C73.167,40.03 73.266,40.796 73.503,41.398C74.125,42.977 74.945,44.45 75.766,45.937C76.427,47.135 77.15,48.182 77.223,49.552C77.249,50.028 76.795,52.888 77.9,52.018C78.064,51.889 78.417,50.431 78.49,50.184C78.784,49.179 78.889,48.129 79.022,47.096C79.287,45.042 79.374,43.088 79.201,41.019Z" clip-rule="evenodd" fill-rule="evenodd" fill="#28354B"/>
<rect  x="5.6" y="14" width="100.8" height="106.909" fill="#0C092A"/>
<path d="M74,80L74,120L126,120L126,80L74,80Z" clip-rule="evenodd" fill-rule="evenodd" fill="#F7FCFF"/>
<path d="M74,80L74,100L126,100L126,80L74,80Z" clip-rule="evenodd" fill-rule="evenodd" fill="#E31D1C"/>
<rect  x="74" y="80" width="52" height="40" rx="4" fill="url(#pf_0_i_1_2412;80_293)" style="mix-blend-mode:overlay"/>
<defs>
<linearGradient id="pf_0_i_1_2412;80_293" x1="100" y1="80" x2="100" y2="120" gradientUnits="userSpaceOnUse">
<stop stop-color="#FFFFFF" stop-opacity="0.7"/>
<stop offset="1" stop-color="#000000" stop-opacity="0.3"/>
</linearGradient>
</defs>
</svg>
