<svg width="128" height="120" viewBox="0 0 128 120" fill="none" xmlns="http://www.w3.org/2000/svg" xmlns:xlink="http://www.w3.org/1999/xlink">
<mask id="mask_0_i_1_2376;80_242" style="mask-type:alpha" maskUnits="userSpaceOnUse" x="74" y="80" width="26.666666" height="20">
<path d="M74,80L74,120L127.333,120L127.333,80L74,80Z" clip-rule="evenodd" fill-rule="evenodd" fill="#E31D1C"/>
</mask>
<circle cx="56" cy="56" r="56" fill="#FFD6DD"/>
<path d="M56,28.992C44.754,28.992 35.636,38.109 35.636,49.356L35.636,51.429C33.573,51.775 32,53.57 32,55.732L32,60.719C32,62.925 33.637,64.749 35.762,65.042C36.557,72.183 41.045,78.21 47.273,81.168L47.273,87.862C31.87,88.692 19.636,101.443 19.636,117.053L92.364,117.053C92.364,101.443 80.13,88.692 64.727,87.862L64.727,81.168C70.955,78.21 75.443,72.183 76.238,65.042C78.363,64.749 80,62.925 80,60.719L80,55.732C80,53.57 78.427,51.775 76.364,51.429L76.364,49.356C76.364,38.109 67.247,28.992 56,28.992Z" clip-rule="evenodd" fill-rule="evenodd" fill="#D0C6AC"/>
<rect  x="8" y="28.992" width="96" height="88.06" fill="#FFCCD7"/>
<rect  x="8" y="28.992" width="96" height="88.06" fill="#FFCCD7"/>
<path d="M35.636,62.764L35.636,65.651C35.636,76.898 44.753,86.015 56,86.015C67.247,86.015 76.364,76.898 76.364,65.651L76.364,62.764C76.364,74.011 67.247,83.128 56,83.128C44.753,83.128 35.636,74.011 35.636,62.764Z" clip-rule="evenodd" fill-rule="evenodd" fill="#000000" fill-opacity="0.1"/>
<path d="M56.182,101.111C66.123,101.111 74.182,96.348 74.182,90.472C74.182,90.309 74.176,90.147 74.163,89.986C84.839,94.334 92.364,104.815 92.364,117.053L19.636,117.053C19.636,104.671 27.339,94.089 38.213,89.835C38.192,90.046 38.182,90.258 38.182,90.472C38.182,96.348 46.241,101.111 56.182,101.111Z" clip-rule="evenodd" fill-rule="evenodd" fill="#6223A9"/>
<rect  x="8" y="77.354" width="96" height="39.699" fill="#6223A9"/>
<path d="M50.909,69.774C50.909,72.565 53.188,74.827 56,74.827L56,74.827C58.812,74.827 61.091,72.565 61.091,69.774Z" clip-rule="evenodd" fill-rule="evenodd" fill="#0C092A"/>
<g opacity="0.3">
<path d="M51.636,62.918C51.636,64.512 53.59,65.805 56,65.805L56,65.805C58.41,65.805 60.364,64.512 60.364,62.918Z" clip-rule="evenodd" fill-rule="evenodd" fill="#0C092A"/>
</g>
<path d="M48.727,56.421C48.727,57.617 47.75,58.586 46.545,58.586C45.34,58.586 44.364,57.617 44.364,56.421C44.364,55.225 45.34,54.255 46.545,54.255C47.75,54.255 48.727,55.225 48.727,56.421Z" fill="#0C092A"/>
<path d="M67.636,56.421C67.636,57.617 66.66,58.586 65.455,58.586C64.25,58.586 63.273,57.617 63.273,56.421C63.273,55.225 64.25,54.255 65.455,54.255C66.66,54.255 67.636,55.225 67.636,56.421Z" fill="#0C092A"/>
<path d="M41.32,51.786C42.744,49.798 46.646,48.683 50.008,49.503C50.398,49.598 50.792,49.361 50.888,48.974C50.984,48.587 50.745,48.196 50.355,48.101C46.451,47.149 41.932,48.44 40.134,50.95C39.902,51.275 39.979,51.726 40.306,51.957C40.633,52.188 41.087,52.111 41.32,51.786Z" fill="#0C092A"/>
<path d="M62.411,51.786C63.835,49.798 67.737,48.683 71.099,49.503C71.489,49.598 71.883,49.361 71.979,48.974C72.075,48.587 71.836,48.196 71.446,48.101C67.542,47.149 63.023,48.44 61.225,50.95C60.993,51.275 61.069,51.726 61.397,51.957C61.724,52.188 62.178,52.111 62.411,51.786Z" transform="rotate(360 66.545 49.939)" fill="#0C092A"/>
<path d="M22.182,68.331C21.957,57.202 32.48,33.971 36.364,29.354C39.245,25.928 47.162,23.056 56,23.218C64.838,23.38 73.041,25.316 76,28.993C80.482,34.561 89.771,55.728 89.818,68.331C89.852,77.281 86.35,86.253 81.455,86.737C78.691,87.01 75.18,86.656 70.961,86.23L70.96,86.23L70.96,86.23L70.96,86.23L70.959,86.229C69.029,86.035 66.95,85.825 64.727,85.653L64.727,81.168C71.607,77.9 76.364,70.888 76.364,62.764L76.364,52.655C72.542,50.565 69.289,48.043 66.579,45.48C67.799,47.732 69.195,49.777 70.769,51.323C59.648,48.226 51.96,41.884 47.353,36.912C45.235,40.911 41.441,46.758 35.636,51.212L35.636,62.764C35.636,70.888 40.393,77.9 47.273,81.168L47.273,85.923C44.744,86.267 42.395,86.703 40.232,87.104C36.287,87.836 32.966,88.452 30.322,88.181C25.15,87.65 22.362,77.28 22.182,68.331Z" clip-rule="evenodd" fill-rule="evenodd" fill="#E6E6E6"/>
<rect  x="7.636" y="16" width="96.727" height="101.053" fill="#0C092A"/>
<g filter="url(#filterI1_2376;80_235)">
<path d="M74,80L74,120L127.333,120L127.333,80L74,80Z" clip-rule="evenodd" fill-rule="evenodd" fill="#E31D1C"/>
<g mask="url(#mask_0_i_1_2376;80_242)">
<path d="M74,76.667L74,100L127.333,100L127.333,76.667L74,76.667Z" clip-rule="evenodd" fill-rule="evenodd" fill="#F7FCFF"/>
</g>
<path d="M74,80L74,120L104,100L74,80Z" clip-rule="evenodd" fill-rule="evenodd" fill="#3D58DB"/>
<rect  x="74" y="80" width="53.333" height="40" fill="url(#pf_0_i_1_2376;80_246)" style="mix-blend-mode:overlay"/>
</g>
<defs>
<filter id="filterI1_2376;80_235" x="71" y="77" width="32.666666" height="26" filterUnits="userSpaceOnUse" color-interpolation-filters="sRGB">
<feFlood flood-opacity="0" result="BackgroundImageFix"/>
<feColorMatrix in="SourceAlpha" type="matrix" values="0 0 0 0 0 0 0 0 0 0 0 0 0 0 0 0 0 0 127 0" result="hardAlpha"/>
<feMorphology radius="0" operator="dilate" in="SourceAlpha" result="0dropshadow"/>
<feOffset dx="0" dy="2"/>
<feGaussianBlur stdDeviation="1.5"/>
<feComposite in2="hardAlpha" operator="out"/>
<feColorMatrix type="matrix" values="0 0 0 0 0 0 0 0 0 0 0 0 0 0 0 0 0 0 0.1 0"/>
<feBlend mode="normal" in2="BackgroundImageFix" result="0dropshadow"/>
<feBlend mode="normal" in="SourceGraphic" in2="0dropshadow" result="shape"/>
</filter>
<linearGradient id="pf_0_i_1_2376;80_246" x1="100.667" y1="80" x2="100.667" y2="120" gradientUnits="userSpaceOnUse">
<stop stop-color="#FFFFFF" stop-opacity="0.7"/>
<stop offset="1" stop-color="#000000" stop-opacity="0.3"/>
</linearGradient>
</defs>
</svg>
