<svg width="128" height="120" viewBox="0 0 128 120" fill="none" xmlns="http://www.w3.org/2000/svg" xmlns:xlink="http://www.w3.org/1999/xlink">
<circle cx="56" cy="56" r="56" fill="#FFD6DD"/>
<path d="M56,28.992C44.754,28.992 35.636,38.11 35.636,49.356L35.636,51.429C33.573,51.775 32,53.57 32,55.732L32,60.719C32,62.925 33.637,64.749 35.762,65.042C36.557,72.183 41.045,78.21 47.273,81.168L47.273,87.862C31.87,88.691 19.636,101.443 19.636,117.053L92.364,117.053C92.364,101.443 80.13,88.691 64.727,87.862L64.727,81.168C70.955,78.21 75.443,72.183 76.238,65.042C78.363,64.749 80,62.925 80,60.719L80,55.732C80,53.57 78.427,51.775 76.364,51.429L76.364,49.356C76.364,38.11 67.247,28.992 56,28.992Z" clip-rule="evenodd" fill-rule="evenodd" fill="#D0C6AC"/>
<rect  x="8" y="28.992" width="96" height="88.06" fill="#EDB98A"/>
<path d="M35.636,62.764L35.636,65.651C35.636,76.898 44.753,86.015 56,86.015C67.247,86.015 76.364,76.898 76.364,65.651L76.364,62.764C76.364,74.011 67.247,83.128 56,83.128C44.753,83.128 35.636,74.011 35.636,62.764Z" clip-rule="evenodd" fill-rule="evenodd" fill="#000000" fill-opacity="0.1"/>
<path d="M56,97.943C61.422,97.943 65.818,93.904 65.818,88.921C65.818,88.594 65.799,88.271 65.762,87.953C80.673,89.275 92.364,101.799 92.364,117.053L19.636,117.053C19.636,101.799 31.327,89.275 46.238,87.953C46.201,88.271 46.182,88.594 46.182,88.921C46.182,93.904 50.578,97.943 56,97.943Z" clip-rule="evenodd" fill-rule="evenodd" fill="#E6E6E6"/>
<rect  x="8" y="77.353" width="96" height="39.699" fill="#FF7096"/>
<path d="M47.273,85.139C44.812,86.8 43.273,89.169 43.273,91.8C43.273,94.47 44.859,96.871 47.385,98.535L49.608,96.798L51.273,96.917L50.909,95.78L50.937,95.758C48.719,94.624 47.273,92.764 47.273,90.662C47.273,90.662 47.273,90.662 47.273,90.662L47.273,85.139ZM64.727,90.662C64.727,90.662 64.727,90.662 64.727,90.662C64.727,92.764 63.281,94.624 61.063,95.758L61.091,95.78L60.727,96.917L62.392,96.798L64.447,98.404C66.859,96.746 68.364,94.4 68.364,91.8C68.364,89.301 66.975,87.038 64.727,85.394L64.727,90.662Z" clip-rule="evenodd" fill-rule="evenodd" fill="#F2F2F2"/>
<path d="M50.909,70.135C50.909,72.074 53.148,73.383 56,73.383C58.852,73.383 61.091,72.074 61.091,70.135C61.091,69.737 60.746,69.414 60.364,69.414C59.894,69.414 59.684,69.74 59.636,70.135C59.185,71.196 58.067,71.837 56,71.94C53.933,71.837 52.815,71.196 52.364,70.135C52.316,69.74 52.106,69.414 51.636,69.414C51.254,69.414 50.909,69.737 50.909,70.135Z" fill="#000000" fill-opacity="0.6"/>
<path d="M51.636,62.917C51.636,64.512 53.59,65.805 56,65.805L56,65.805C58.41,65.805 60.364,64.512 60.364,62.917Z" clip-rule="evenodd" fill-rule="evenodd" fill="#000000" fill-opacity="0.16"/>
<path d="M48.727,56.421C48.727,57.617 47.75,58.586 46.545,58.586C45.34,58.586 44.364,57.617 44.364,56.421C44.364,55.225 45.34,54.256 46.545,54.256C47.75,54.256 48.727,55.225 48.727,56.421Z" fill="#000000" fill-opacity="0.6"/>
<path d="M67.636,56.421C67.636,57.617 66.66,58.586 65.455,58.586C64.25,58.586 63.273,57.617 63.273,56.421C63.273,55.225 64.25,54.256 65.455,54.256C66.66,54.256 67.636,55.225 67.636,56.421Z" fill="#000000" fill-opacity="0.6"/>
<path d="M41.32,51.787C42.744,49.798 46.646,48.684 50.008,49.503C50.398,49.598 50.792,49.361 50.888,48.974C50.984,48.587 50.745,48.196 50.355,48.101C46.451,47.149 41.932,48.44 40.134,50.95C39.902,51.275 39.979,51.726 40.306,51.957C40.633,52.188 41.087,52.112 41.32,51.787Z" fill="#000000" fill-opacity="0.6"/>
<path d="M62.411,51.787C63.835,49.798 67.737,48.684 71.099,49.503C71.489,49.598 71.883,49.361 71.979,48.974C72.075,48.587 71.836,48.196 71.446,48.101C67.542,47.149 63.023,48.44 61.225,50.95C60.993,51.275 61.069,51.726 61.397,51.957C61.724,52.188 62.178,52.112 62.411,51.787Z" transform="rotate(360 66.545 49.939)" fill="#000000" fill-opacity="0.6"/>
<path d="M25.818,48.662C25.818,50.304 26.435,51.781 27.583,52.55C27.912,52.77 28.481,52.883 29.091,52.935L29.091,81.684C29.091,83.279 30.393,84.571 32,84.571L47.273,84.571L47.273,81.183C40.898,78.177 36.346,71.981 35.712,64.674C33.611,64.362 32,62.563 32,60.391L32,55.699C32,54.439 32.542,53.305 33.407,52.514C37.603,51.569 42.171,49.794 46.67,47.216C51.081,44.688 54.852,41.717 57.753,38.647C56.507,41.501 54.998,44.002 53.226,46.148C57.835,44.155 60.974,40.95 62.641,36.534C62.779,36.867 62.922,37.199 63.071,37.531C66.8,45.844 73.206,51.736 79.711,53.679C79.898,54.441 80,55.152 80,55.699L80,60.391C80,62.563 78.389,64.362 76.288,64.674C75.654,71.981 71.102,78.177 64.727,81.183L64.727,84.571L71.273,84.571C77.699,84.571 82.909,79.401 82.909,73.023L82.909,54.31L82.909,53.489C82.909,53.463 82.905,53.43 82.898,53.39C82.871,51.354 82.797,46.578 82.676,45.675C80.937,32.593 69.657,22.496 56,22.496C42.878,22.496 31.95,31.818 29.455,44.15C27.446,44.15 25.818,46.17 25.818,48.662Z" clip-rule="evenodd" fill-rule="evenodd" fill="#944F23"/>
<rect  x="7.636" y="16" width="96.727" height="101.053" fill="#2C1B18"/>
<g opacity="0.44" style="isolation:isolate">
<path d="M63.071,37.531C67.412,47.208 75.38,53.604 82.909,54.31L82.909,49.203C82.909,34.453 70.861,22.496 56,22.496C42.878,22.496 31.95,31.818 29.571,44.153C29.533,44.151 29.494,44.15 29.455,44.15C27.446,44.15 25.818,46.17 25.818,48.662C25.818,51.001 27.253,52.924 29.091,53.151L29.091,53.206C29.206,53.196 29.321,53.185 29.437,53.173C29.443,53.173 29.449,53.173 29.455,53.173C29.691,53.173 29.922,53.145 30.145,53.092C35.168,52.456 40.974,50.48 46.67,47.216C51.081,44.688 54.852,41.717 57.753,38.647C56.507,41.501 54.998,44.002 53.226,46.148C57.835,44.155 60.974,40.95 62.641,36.534C62.779,36.867 62.922,37.199 63.071,37.531Z" clip-rule="evenodd" fill-rule="evenodd" fill="#FFFFFF" fill-opacity="0.16"/>
</g>
<rect  x="106" y="80" width="22" height="40" fill="#F50100"/>
<rect  x="74" y="80" width="22" height="40" fill="#2E42A5"/>
<rect  x="93" y="80" width="16" height="40" fill="#F7FCFF"/>
<rect  x="74" y="80" width="53.333" height="40" rx="4" fill="url(#pf_0_i_1_2325;80_231)" style="mix-blend-mode:overlay"/>
<defs>
<linearGradient id="pf_0_i_1_2325;80_231" x1="100.667" y1="80" x2="100.667" y2="120" gradientUnits="userSpaceOnUse">
<stop stop-color="#FFFFFF" stop-opacity="0.7"/>
<stop offset="1" stop-color="#000000" stop-opacity="0.3"/>
</linearGradient>
</defs>
</svg>
