<svg width="126" height="120" viewBox="0 0 126 120" fill="none" xmlns="http://www.w3.org/2000/svg" xmlns:xlink="http://www.w3.org/1999/xlink">
<circle cx="56" cy="56" r="56" fill="#C4D0FB"/>
<path d="M56,28.992C44.754,28.992 35.636,38.11 35.636,49.356L35.636,51.429C33.573,51.775 32,53.57 32,55.732L32,60.719C32,62.925 33.637,64.749 35.762,65.042C36.557,72.183 41.045,78.21 47.273,81.168L47.273,87.862C31.87,88.691 19.636,101.443 19.636,117.053L92.364,117.053C92.364,101.443 80.13,88.691 64.727,87.862L64.727,81.168C70.955,78.21 75.443,72.183 76.238,65.042C78.363,64.749 80,62.925 80,60.719L80,55.732C80,53.57 78.427,51.775 76.364,51.429L76.364,49.356C76.364,38.11 67.247,28.992 56,28.992Z" clip-rule="evenodd" fill-rule="evenodd" fill="#D0C6AC"/>
<rect  x="8" y="28.992" width="96" height="88.06" fill="#D08B5B"/>
<path d="M35.636,62.764L35.636,65.651C35.636,76.898 44.753,86.015 56,86.015C67.247,86.015 76.364,76.898 76.364,65.651L76.364,62.764C76.364,74.011 67.247,83.128 56,83.128C44.753,83.128 35.636,74.011 35.636,62.764Z" clip-rule="evenodd" fill-rule="evenodd" fill="#000000" fill-opacity="0.1"/>
<path d="M56.182,96.058C62.91,96.058 68.364,92.587 68.364,88.306C68.364,88.305 68.364,88.304 68.364,88.302C82.01,90.761 92.364,102.698 92.364,117.053L19.636,117.053C19.636,102.571 30.174,90.55 44,88.239C44,88.261 44,88.284 44,88.306C44,92.587 49.454,96.058 56.182,96.058Z" clip-rule="evenodd" fill-rule="evenodd" fill="#E6E6E6"/>
<rect  x="8" y="77.353" width="96" height="39.699" fill="#555FA8"/>
<g opacity="0.6" style="isolation:isolate">
<path d="M70.595,88.847C70.595,94.212 64.142,98.561 56.182,98.561C48.222,98.561 41.769,94.212 41.769,88.847C41.769,83.483 48.222,79.134 56.182,79.134C64.142,79.134 70.595,83.483 70.595,88.847Z" fill="#000000" fill-opacity="0.16"/>
</g>
<path d="M50.909,70.135C50.909,72.074 53.148,73.383 56,73.383C58.852,73.383 61.091,72.074 61.091,70.135C61.091,69.737 60.746,69.414 60.364,69.414C59.894,69.414 59.684,69.74 59.636,70.135C59.185,71.196 58.067,71.837 56,71.94C53.933,71.837 52.815,71.196 52.364,70.135C52.316,69.74 52.106,69.414 51.636,69.414C51.254,69.414 50.909,69.737 50.909,70.135Z" fill="#000000" fill-opacity="0.6"/>
<path d="M51.636,62.917C51.636,64.512 53.59,65.805 56,65.805L56,65.805C58.41,65.805 60.364,64.512 60.364,62.917Z" clip-rule="evenodd" fill-rule="evenodd" fill="#000000" fill-opacity="0.16"/>
<path d="M48.727,56.421C48.727,57.617 47.75,58.586 46.545,58.586C45.34,58.586 44.364,57.617 44.364,56.421C44.364,55.225 45.34,54.256 46.545,54.256C47.75,54.256 48.727,55.225 48.727,56.421Z" fill="#000000" fill-opacity="0.6"/>
<path d="M67.636,56.421C67.636,57.617 66.66,58.586 65.455,58.586C64.25,58.586 63.273,57.617 63.273,56.421C63.273,55.225 64.25,54.256 65.455,54.256C66.66,54.256 67.636,55.225 67.636,56.421Z" fill="#000000" fill-opacity="0.6"/>
<path d="M41.32,51.787C42.744,49.798 46.646,48.684 50.008,49.503C50.398,49.598 50.792,49.361 50.888,48.974C50.984,48.587 50.745,48.196 50.355,48.101C46.451,47.149 41.932,48.44 40.134,50.95C39.902,51.275 39.979,51.726 40.306,51.957C40.633,52.188 41.087,52.112 41.32,51.787Z" fill="#000000" fill-opacity="0.6"/>
<path d="M62.411,51.787C63.835,49.798 67.737,48.684 71.099,49.503C71.489,49.598 71.883,49.361 71.979,48.974C72.075,48.587 71.836,48.196 71.446,48.101C67.542,47.149 63.023,48.44 61.225,50.95C60.993,51.275 61.069,51.726 61.397,51.957C61.724,52.188 62.178,52.112 62.411,51.787Z" transform="rotate(360 66.545 49.939)" fill="#000000" fill-opacity="0.6"/>
<path d="M36,51.368C35.881,51.81 35.399,51.906 35.272,51.368C35.011,47.652 35.272,28.893 56,28.632C76.727,28.37 76.989,47.652 76.727,51.368C76.601,51.906 76.119,51.81 76,51.368C76.168,50.808 74.801,40.992 71.273,38.376C70.633,37.934 68.637,37.514 65.949,37.199L67.273,34.045L64.734,37.069C62.177,36.819 59.148,36.662 56.114,36.66C49.094,36.655 42.043,37.468 40.727,38.376C37.198,40.992 35.832,50.808 36,51.368Z" clip-rule="evenodd" fill-rule="evenodd" fill="#28354B"/>
<rect  x="8" y="16" width="96" height="101.053" fill="#2C1B18"/>
<g filter="url(#filterI1_2308;199_8939)">
<path d="M49.908,52.19C50.771,52.198 51.178,52.34 51.325,53.233C51.474,54.137 51.33,55.153 51.158,56.044C50.896,57.404 50.46,58.736 49.446,59.73C48.912,60.253 48.26,60.671 47.567,60.956C47.199,61.107 46.81,61.216 46.422,61.299C46.308,61.323 45.339,61.456 45.933,61.388C44.545,61.546 43.04,61.539 41.88,60.663C40.596,59.691 39.716,58.153 39.329,56.622C39.103,55.726 38.627,53.582 39.496,52.866C40.492,52.045 49.908,52.19 49.908,52.19L49.908,52.19ZM41.17,49.741C39.192,49.809 37.871,50.154 36.896,52.115C35.107,55.71 38.168,61.102 41.583,62.571C45.574,64.288 50.033,62.387 52.144,58.949C53.261,57.129 53.826,54.372 53.79,52.272C53.744,49.592 51.857,49.517 49.64,49.576L41.17,49.741Z" clip-rule="evenodd" fill-rule="evenodd" fill="#44509F"/>
<path d="M62.066,52.189C61.203,52.197 60.796,52.339 60.649,53.232C60.5,54.136 60.645,55.152 60.816,56.043C61.078,57.403 61.514,58.735 62.528,59.729C63.062,60.252 63.714,60.67 64.407,60.955C64.775,61.106 65.164,61.215 65.552,61.298C65.666,61.322 66.636,61.455 66.041,61.387C67.429,61.545 68.935,61.538 70.094,60.662C71.378,59.69 72.258,58.153 72.645,56.621C72.871,55.725 73.347,53.582 72.478,52.865C71.483,52.044 62.066,52.189 62.066,52.189L62.066,52.189ZM70.804,49.74C72.783,49.808 74.103,50.153 75.079,52.114C76.867,55.709 73.806,61.101 70.392,62.57C66.4,64.288 61.941,62.387 59.83,58.949C58.713,57.128 58.148,54.371 58.184,52.271C58.231,49.591 60.117,49.516 62.335,49.575L70.804,49.74Z" clip-rule="evenodd" fill-rule="evenodd" fill="#44509F"/>
<path d="M37.89,51.342C36.649,51.411 35.231,51.428 34.069,51.96C32.838,52.524 32.648,53.8 34.2,53.976C34.899,54.056 35.598,53.925 36.286,53.803C36.85,53.703 37.615,53.735 38.148,53.521C39.14,53.123 39.076,51.275 37.89,51.342Z" clip-rule="evenodd" fill-rule="evenodd" fill="#44509F"/>
<path d="M74.086,51.342C75.326,51.411 76.744,51.428 77.906,51.96C79.137,52.524 79.327,53.8 77.776,53.976C77.077,54.056 76.377,53.925 75.689,53.803C75.126,53.703 74.36,53.735 73.828,53.521C72.835,53.123 72.899,51.275 74.086,51.342Z" clip-rule="evenodd" fill-rule="evenodd" fill="#44509F"/>
<path d="M59.676,52.095C58.968,51.265 57.124,50.785 55.96,50.785C54.797,50.785 53.006,51.265 52.299,52.095C51.942,52.513 51.93,53.073 52.548,53.336C53.318,53.663 54.006,53.07 54.623,52.76C55.411,52.363 56.622,52.407 57.352,52.76C57.973,53.06 58.656,53.663 59.426,53.336C60.045,53.073 60.033,52.513 59.676,52.095Z" clip-rule="evenodd" fill-rule="evenodd" fill="#44509F"/>
</g>
<rect  x="110" y="80" width="16" height="40" fill="#E31D1C"/>
<rect  x="74" y="80" width="16" height="40" fill="#E31D1C"/>
<rect  x="88" y="80" width="24" height="40" fill="#F7FCFF"/>
<path d="M97.493,94.089L99.96,91L100,109L98.972,109L99.603,104.545C99.603,104.545 92.685,105.635 93.257,105.085C93.829,104.536 94.159,103.528 94.159,103.528L88,99.933C88,99.933 88.971,99.922 89.762,99.511C90.552,99.1 88.971,96.661 88.971,96.661L92.081,97.056L93.257,95.938L95.603,98.086L96.658,98.086L95.603,93.165L97.493,94.089ZM100,109L100,91L102.507,94.089L104.397,93.165L103.342,98.086L104.397,98.086L106.743,95.938L107.919,97.056L111.029,96.661C111.029,96.661 109.448,99.1 110.238,99.511C111.029,99.922 112,99.933 112,99.933L105.842,103.528C105.842,103.528 106.171,104.536 106.743,105.085C107.315,105.635 100.397,104.545 100.397,104.545L101.028,109L100,109Z" clip-rule="evenodd" fill-rule="evenodd" fill="#E31D1C"/>
<rect  x="74" y="80" width="52" height="40" rx="4" fill="url(#pf_0_i_1_2309;80_260)" style="mix-blend-mode:overlay"/>
<defs>
<filter id="filterI1_2308;199_8939" x="33.090881" y="49.563965" width="22.896893" height="8.824701" filterUnits="userSpaceOnUse" color-interpolation-filters="sRGB">
<feFlood flood-opacity="0" result="BackgroundImageFix"/>
<feColorMatrix in="SourceAlpha" type="matrix" values="0 0 0 0 0 0 0 0 0 0 0 0 0 0 0 0 0 0 127 0" result="hardAlpha"/>
<feMorphology radius="0" operator="dilate" in="SourceAlpha" result="0dropshadow"/>
<feOffset dx="0" dy="2"/>
<feGaussianBlur stdDeviation="0"/>
<feComposite in2="hardAlpha" operator="out"/>
<feColorMatrix type="matrix" values="0 0 0 0 0 0 0 0 0 0 0 0 0 0 0 0 0 0 0.1 0"/>
<feBlend mode="normal" in2="BackgroundImageFix" result="0dropshadow"/>
<feBlend mode="normal" in="SourceGraphic" in2="0dropshadow" result="shape"/>
</filter>
<linearGradient id="pf_0_i_1_2309;80_260" x1="100" y1="80" x2="100" y2="120" gradientUnits="userSpaceOnUse">
<stop stop-color="#FFFFFF" stop-opacity="0.7"/>
<stop offset="1" stop-color="#000000" stop-opacity="0.3"/>
</linearGradient>
</defs>
</svg>
