<svg width="718" height="2224" viewBox="0 0 718 2224" fill="none" xmlns="http://www.w3.org/2000/svg" xmlns:xlink="http://www.w3.org/1999/xlink">
<path d="M0,90.555C0,55.209 28.654,26.555 64,26.555L179.5,26.555L269.25,26.555L281.096,26.555C301.816,26.555 320.494,14.596 338.94,5.158C344.882,2.118 351.656,0 359,0C366.344,0 373.118,2.118 379.06,5.158C397.506,14.596 416.184,26.555 436.904,26.555L448.75,26.555L538.5,26.555L654,26.555C689.346,26.555 718,55.209 718,90.555L718,2224L0,2224L0,90.555Z" fill="#EFEEFC"/>
<circle cx="360" cy="24" r="8" fill="#C1BCF1"/>
</svg>
