<svg width="1204" height="1204" viewBox="0 0 1204 1204" fill="none" xmlns="http://www.w3.org/2000/svg" xmlns:xlink="http://www.w3.org/1999/xlink">
<g opacity="0.1" style="isolation:isolate">
<path d="M602,1023.5C834.788,1023.5 1023.5,834.788 1023.5,602L1020.5,602C1020.5,833.132 833.132,1020.5 602,1020.5L602,1023.5ZM1023.5,602C1023.5,369.212 834.788,180.5 602,180.5L602,183.5C833.132,183.5 1020.5,370.869 1020.5,602L1023.5,602ZM602,180.5C369.212,180.5 180.5,369.212 180.5,602L183.5,602C183.5,370.869 370.869,183.5 602,183.5L602,180.5ZM180.5,602C180.5,834.788 369.212,1023.5 602,1023.5L602,1020.5C370.869,1020.5 183.5,833.132 183.5,602L180.5,602Z" fill="#FFFFFF"/>
</g>
<g opacity="0.1" style="isolation:isolate">
<path d="M602,1203.5C934.2,1203.5 1203.5,934.2 1203.5,602L1200.5,602C1200.5,932.542 932.542,1200.5 602,1200.5L602,1203.5ZM1203.5,602C1203.5,269.8 934.2,0.5 602,0.5L602,3.5C932.542,3.5 1200.5,271.458 1200.5,602L1203.5,602ZM602,0.5C269.8,0.5 0.5,269.8 0.5,602L3.5,602C3.5,271.458 271.458,3.5 602,3.5L602,0.5ZM0.5,602C0.5,934.2 269.8,1203.5 602,1203.5L602,1200.5C271.458,1200.5 3.5,932.542 3.5,602L0.5,602Z" fill="#FFFFFF"/>
</g>
</svg>
