<svg width="956" height="1008" viewBox="0 0 956 1008" fill="none" xmlns="http://www.w3.org/2000/svg" xmlns:xlink="http://www.w3.org/1999/xlink">
<g opacity="0.1" style="isolation:isolate">
<path d="M791.5,336.971C842.586,336.971 884,281.359 884,212.757C884,144.156 842.586,88.543 791.5,88.543C740.414,88.543 699,144.156 699,212.757C699,281.359 740.414,336.971 791.5,336.971Z" clip-rule="evenodd" fill-rule="evenodd" fill="#FFFFFF"/>
</g>
<g opacity="0.2" style="isolation:isolate">
<path d="M794,431.971C838.572,431.971 878.844,407.709 907.94,368.639C937.034,329.567 955,275.639 955,216.115L953,216.115C953,275.251 935.148,328.751 906.336,367.443C877.522,406.137 837.794,429.971 794,429.971L794,431.971ZM955,216.115C955,156.589 937.034,102.66 907.94,63.59C878.844,24.519 838.572,0.257 794,0.257L794,2.257C837.794,2.257 877.522,26.092 906.336,64.784C935.148,103.477 953,156.977 953,216.115L955,216.115ZM794,0.257C749.429,0.257 709.156,24.519 680.061,63.59C650.966,102.66 633,156.589 633,216.115L635,216.115C635,156.977 652.851,103.477 681.665,64.784C710.478,26.092 750.206,2.257 794,2.257L794,0.257ZM633,216.115C633,275.639 650.966,329.567 680.061,368.639C709.156,407.709 749.429,431.971 794,431.971L794,429.971C750.206,429.971 710.478,406.137 681.665,367.443C652.851,328.751 635,275.251 635,216.115L633,216.115Z" fill="#FFFFFF"/>
</g>
<g opacity="0.1" style="isolation:isolate">
<path d="M157.5,911.714C208.586,911.714 250,856.102 250,787.5C250,718.898 208.586,663.286 157.5,663.286C106.414,663.286 65,718.898 65,787.5C65,856.102 106.414,911.714 157.5,911.714Z" clip-rule="evenodd" fill-rule="evenodd" fill="#FFFFFF"/>
</g>
<g opacity="0.2" style="isolation:isolate">
<path d="M160,1006.714C204.572,1006.714 244.844,982.452 273.94,943.382C303.034,904.31 321,850.382 321,790.858L319,790.858C319,849.994 301.148,903.494 272.336,942.186C243.522,980.88 203.794,1004.714 160,1004.714L160,1006.714ZM321,790.858C321,731.332 303.034,677.403 273.94,638.333C244.844,599.262 204.572,575 160,575L160,577C203.794,577 243.522,600.835 272.336,639.527C301.148,678.22 319,731.72 319,790.858L321,790.858ZM160,575C115.429,575 75.156,599.262 46.061,638.333C16.966,677.403 -1,731.332 -1,790.858L1,790.858C1,731.72 18.851,678.22 47.665,639.527C76.478,600.835 116.206,577 160,577L160,575ZM-1,790.858C-1,850.382 16.966,904.31 46.061,943.382C75.156,982.452 115.429,1006.714 160,1006.714L160,1004.714C116.206,1004.714 76.478,980.88 47.665,942.186C18.851,903.494 1,849.994 1,790.858L-1,790.858Z" fill="#FFFFFF"/>
</g>
</svg>
