<svg width="54" height="40" viewBox="0 0 54 40" fill="none" xmlns="http://www.w3.org/2000/svg" xmlns:xlink="http://www.w3.org/1999/xlink">
<mask id="mask_0_i_1_2337;80_15" style="mask-type:alpha" maskUnits="userSpaceOnUse" x="6.984192" y="6.987976" width="12.857143" height="13.012047">
<path d="M19.841,33.012C12.741,33.012 6.984,27.186 6.984,20C6.984,12.814 12.741,6.988 19.841,6.988C26.942,6.988 32.698,12.814 32.698,20C32.698,27.186 26.942,33.012 19.841,33.012Z" clip-rule="evenodd" fill-rule="evenodd" fill="#000000"/>
</mask>
<rect  x="13.333" y="0" width="40" height="40" fill="#EF0000"/>
<rect  x="0" y="0" width="20" height="40" fill="#2F8D00"/>
<g mask="url(#mask_0_i_1_2337;80_15)">
<path d="M19.048,6.667L20.714,6.667L20.714,11.165L19.048,11.165L19.048,6.667Z" clip-rule="evenodd" fill-rule="evenodd" fill="#FFE017"/>
<path d="M19.048,29.157L20.714,29.157L20.714,33.333L19.048,33.333L19.048,29.157Z" clip-rule="evenodd" fill-rule="evenodd" fill="#FFE017"/>
<path d="M7.191,20.673L6.725,19.478C11.867,17.425 15.748,16.101 18.381,15.504C22.245,14.629 26.49,13.981 31.117,13.561L31.23,14.841C26.656,15.256 22.466,15.896 18.659,16.758C16.104,17.337 12.277,18.643 7.191,20.673Z" fill="#FFE017"/>
<path d="M31.902,12.773L31.523,14C27.637,12.773 24.471,12.246 22.038,12.409L21.954,11.127C24.567,10.951 27.879,11.503 31.902,12.773Z" fill="#FFE017"/>
<path d="M33.246,19.633L32.528,20.693C30.547,19.317 28.106,18.626 25.189,18.626L25.189,17.341C28.351,17.341 31.043,18.103 33.246,19.633Z" fill="#FFE017"/>
<path d="M32.17,20.018L32.499,21.259C28.227,22.416 24.217,23.072 20.468,23.227C16.693,23.383 12.294,22.724 7.265,21.256L7.617,20.021C12.523,21.453 16.791,22.092 20.417,21.943C24.068,21.792 27.986,21.151 32.17,20.018Z" fill="#FFE017"/>
<path d="M31.686,26.06L29.679,28.118C25.865,24.307 22.506,21.582 19.625,19.944C16.695,18.279 12.873,16.588 8.166,14.878L9.131,12.157C13.977,13.917 17.939,15.67 21.024,17.423C24.158,19.204 27.705,22.082 31.686,26.06Z" fill="#FFE017"/>
<path d="M9.097,27.225L8.338,26.196C8.444,26.116 8.633,25.982 8.894,25.812C9.324,25.533 9.803,25.253 10.317,24.992C11.734,24.273 13.156,23.825 14.512,23.783C14.578,23.781 14.644,23.78 14.71,23.78L14.71,25.065C14.657,25.065 14.604,25.066 14.55,25.068C13.407,25.103 12.153,25.499 10.886,26.141C10.414,26.381 9.974,26.637 9.58,26.894C9.442,26.983 9.321,27.066 9.217,27.139C9.156,27.182 9.116,27.212 9.097,27.225Z" fill="#FFE017"/>
<path d="M9.687,27.671L10.007,26.427C14.24,27.542 17.504,28.098 19.782,28.098C22.051,28.098 25.429,27.442 29.893,26.127L30.248,27.361C25.678,28.707 22.197,29.383 19.782,29.383C17.375,29.383 14.016,28.811 9.687,27.671Z" fill="#FFE017"/>
<path d="M8.038,16.157L10.049,14.104L12.995,17.06L10.983,19.113L8.038,16.157Z" fill="#FFE017"/>
<path d="M24.727,26.413L26.223,23.95L30.896,26.857L29.399,29.32L24.727,26.413Z" fill="#FFE017"/>
</g>
<path d="M6.984,20C6.984,27.186 12.741,33.012 19.841,33.012C26.942,33.012 32.698,27.186 32.698,20C32.698,12.814 26.942,6.988 19.841,6.988C12.741,6.988 6.984,12.814 6.984,20ZM31.111,20.161C31.111,26.371 26.137,31.406 20,31.406C13.864,31.406 8.889,26.371 8.889,20.161C8.889,13.95 13.864,8.916 20,8.916C26.137,8.916 31.111,13.95 31.111,20.161Z" clip-rule="evenodd" fill-rule="evenodd" fill="#F9E813"/>
<path d="M12.761,11.976L12.761,22.41C13.448,26.54 15.762,28.605 19.704,28.605C23.645,28.605 25.959,26.54 26.646,22.41L26.646,11.976L12.761,11.976Z" fill="#FFFFFF"/>
<path d="M11.809,11.012L27.598,11.012L27.598,22.491L27.585,22.57C26.822,27.156 24.118,29.569 19.704,29.569C15.289,29.569 12.585,27.156 11.822,22.57L11.809,22.491L11.809,11.012Z" fill="#C51918"/>
<path d="M15.42,14.518L23.987,14.518L23.987,21.919C23.987,21.919 23.351,25.742 19.704,25.742C16.056,25.742 15.42,21.919 15.42,21.919L15.42,14.518Z" fill="#F7FCFF"/>
<path d="M13.333,11.807L14.538,11.807L14.538,12.611L13.333,12.611L13.333,11.807Z" clip-rule="evenodd" fill-rule="evenodd" fill="#F9E813"/>
<path d="M12.698,12.129L14.921,12.129L14.921,12.53L12.698,12.53L12.698,12.129Z" clip-rule="evenodd" fill-rule="evenodd" fill="#060101"/>
<path d="M12.698,12.45L13.903,12.45L13.903,12.851L12.698,12.851L12.698,12.45Z" clip-rule="evenodd" fill-rule="evenodd" fill="#F9E813"/>
<path d="M13.968,12.45L15.173,12.45L15.173,12.851L13.968,12.851L13.968,12.45Z" clip-rule="evenodd" fill-rule="evenodd" fill="#F9E813"/>
<path d="M12.698,13.414L13.502,13.414L13.502,14.619L12.698,14.619L12.698,13.414Z" clip-rule="evenodd" fill-rule="evenodd" fill="#F9E813"/>
<path d="M14.286,13.414L15.089,13.414L15.089,14.619L14.286,14.619L14.286,13.414Z" clip-rule="evenodd" fill-rule="evenodd" fill="#F9E813"/>
<path d="M13.651,13.414L14.052,13.414L14.052,14.619L13.651,14.619L13.651,13.414Z" clip-rule="evenodd" fill-rule="evenodd" fill="#F9E813"/>
<path d="M12.698,13.092L14.921,13.092L14.921,13.494L12.698,13.494L12.698,13.092Z" clip-rule="evenodd" fill-rule="evenodd" fill="#060101"/>
<path d="M12.698,14.056L14.921,14.056L14.921,14.458L12.698,14.458L12.698,14.056Z" clip-rule="evenodd" fill-rule="evenodd" fill="#060101"/>
<path d="M13.016,12.771L13.418,12.771L13.418,13.173L13.016,13.173L13.016,12.771Z" clip-rule="evenodd" fill-rule="evenodd" fill="#F9E813"/>
<path d="M14.286,12.771L14.687,12.771L14.687,13.173L14.286,13.173L14.286,12.771Z" clip-rule="evenodd" fill-rule="evenodd" fill="#F9E813"/>
<path d="M13.651,12.45L14.052,12.45L14.052,13.253L13.651,13.253L13.651,12.45Z" clip-rule="evenodd" fill-rule="evenodd" fill="#F9E813"/>
<path d="M19.365,11.807L20.57,11.807L20.57,12.611L19.365,12.611L19.365,11.807Z" clip-rule="evenodd" fill-rule="evenodd" fill="#F9E813"/>
<path d="M18.73,12.129L20.952,12.129L20.952,12.53L18.73,12.53L18.73,12.129Z" clip-rule="evenodd" fill-rule="evenodd" fill="#060101"/>
<path d="M18.73,12.45L19.935,12.45L19.935,12.851L18.73,12.851L18.73,12.45Z" clip-rule="evenodd" fill-rule="evenodd" fill="#F9E813"/>
<path d="M20,12.45L21.205,12.45L21.205,12.851L20,12.851L20,12.45Z" clip-rule="evenodd" fill-rule="evenodd" fill="#F9E813"/>
<path d="M18.73,13.414L19.533,13.414L19.533,14.619L18.73,14.619L18.73,13.414Z" clip-rule="evenodd" fill-rule="evenodd" fill="#F9E813"/>
<path d="M20.318,13.414L21.121,13.414L21.121,14.619L20.318,14.619L20.318,13.414Z" clip-rule="evenodd" fill-rule="evenodd" fill="#F9E813"/>
<path d="M19.683,13.414L20.084,13.414L20.084,14.619L19.683,14.619L19.683,13.414Z" clip-rule="evenodd" fill-rule="evenodd" fill="#F9E813"/>
<path d="M18.73,13.092L20.952,13.092L20.952,13.494L18.73,13.494L18.73,13.092Z" clip-rule="evenodd" fill-rule="evenodd" fill="#060101"/>
<path d="M18.73,14.056L20.952,14.056L20.952,14.458L18.73,14.458L18.73,14.056Z" clip-rule="evenodd" fill-rule="evenodd" fill="#060101"/>
<path d="M19.048,12.771L19.449,12.771L19.449,13.173L19.048,13.173L19.048,12.771Z" clip-rule="evenodd" fill-rule="evenodd" fill="#F9E813"/>
<path d="M20.318,12.771L20.719,12.771L20.719,13.173L20.318,13.173L20.318,12.771Z" clip-rule="evenodd" fill-rule="evenodd" fill="#F9E813"/>
<path d="M19.683,12.45L20.084,12.45L20.084,13.253L19.683,13.253L19.683,12.45Z" clip-rule="evenodd" fill-rule="evenodd" fill="#F9E813"/>
<path d="M25.079,11.807L26.284,11.807L26.284,12.611L25.079,12.611L25.079,11.807Z" clip-rule="evenodd" fill-rule="evenodd" fill="#F9E813"/>
<path d="M24.444,12.129L26.667,12.129L26.667,12.53L24.444,12.53L24.444,12.129Z" clip-rule="evenodd" fill-rule="evenodd" fill="#060101"/>
<path d="M24.444,12.45L25.649,12.45L25.649,12.851L24.444,12.851L24.444,12.45Z" clip-rule="evenodd" fill-rule="evenodd" fill="#F9E813"/>
<path d="M25.714,12.45L26.919,12.45L26.919,12.851L25.714,12.851L25.714,12.45Z" clip-rule="evenodd" fill-rule="evenodd" fill="#F9E813"/>
<path d="M24.444,13.414L25.248,13.414L25.248,14.619L24.444,14.619L24.444,13.414Z" clip-rule="evenodd" fill-rule="evenodd" fill="#F9E813"/>
<path d="M26.032,13.414L26.835,13.414L26.835,14.619L26.032,14.619L26.032,13.414Z" clip-rule="evenodd" fill-rule="evenodd" fill="#F9E813"/>
<path d="M25.397,13.414L25.798,13.414L25.798,14.619L25.397,14.619L25.397,13.414Z" clip-rule="evenodd" fill-rule="evenodd" fill="#F9E813"/>
<path d="M24.444,13.092L26.667,13.092L26.667,13.494L24.444,13.494L24.444,13.092Z" clip-rule="evenodd" fill-rule="evenodd" fill="#060101"/>
<path d="M24.444,14.056L26.667,14.056L26.667,14.458L24.444,14.458L24.444,14.056Z" clip-rule="evenodd" fill-rule="evenodd" fill="#060101"/>
<path d="M24.762,12.771L25.164,12.771L25.164,13.173L24.762,13.173L24.762,12.771Z" clip-rule="evenodd" fill-rule="evenodd" fill="#F9E813"/>
<path d="M26.032,12.771L26.433,12.771L26.433,13.173L26.032,13.173L26.032,12.771Z" clip-rule="evenodd" fill-rule="evenodd" fill="#F9E813"/>
<path d="M25.397,12.45L25.798,12.45L25.798,13.253L25.397,13.253L25.397,12.45Z" clip-rule="evenodd" fill-rule="evenodd" fill="#F9E813"/>
<path d="M25.079,17.59L26.284,17.59L26.284,18.394L25.079,18.394L25.079,17.59Z" clip-rule="evenodd" fill-rule="evenodd" fill="#F9E813"/>
<path d="M24.444,17.912L26.667,17.912L26.667,18.313L24.444,18.313L24.444,17.912Z" clip-rule="evenodd" fill-rule="evenodd" fill="#060101"/>
<path d="M24.444,18.233L25.649,18.233L25.649,18.635L24.444,18.635L24.444,18.233Z" clip-rule="evenodd" fill-rule="evenodd" fill="#F9E813"/>
<path d="M25.714,18.233L26.919,18.233L26.919,18.635L25.714,18.635L25.714,18.233Z" clip-rule="evenodd" fill-rule="evenodd" fill="#F9E813"/>
<path d="M24.444,19.197L25.248,19.197L25.248,20.402L24.444,20.402L24.444,19.197Z" clip-rule="evenodd" fill-rule="evenodd" fill="#F9E813"/>
<path d="M26.032,19.197L26.835,19.197L26.835,20.402L26.032,20.402L26.032,19.197Z" clip-rule="evenodd" fill-rule="evenodd" fill="#F9E813"/>
<path d="M25.397,19.197L25.798,19.197L25.798,20.402L25.397,20.402L25.397,19.197Z" clip-rule="evenodd" fill-rule="evenodd" fill="#F9E813"/>
<path d="M24.444,18.876L26.667,18.876L26.667,19.277L24.444,19.277L24.444,18.876Z" clip-rule="evenodd" fill-rule="evenodd" fill="#060101"/>
<path d="M24.444,19.839L26.667,19.839L26.667,20.241L24.444,20.241L24.444,19.839Z" clip-rule="evenodd" fill-rule="evenodd" fill="#060101"/>
<path d="M24.762,18.554L25.164,18.554L25.164,18.956L24.762,18.956L24.762,18.554Z" clip-rule="evenodd" fill-rule="evenodd" fill="#F9E813"/>
<path d="M26.032,18.554L26.433,18.554L26.433,18.956L26.032,18.956L26.032,18.554Z" clip-rule="evenodd" fill-rule="evenodd" fill="#F9E813"/>
<path d="M25.397,18.233L25.798,18.233L25.798,19.036L25.397,19.036L25.397,18.233Z" clip-rule="evenodd" fill-rule="evenodd" fill="#F9E813"/>
<path d="M13.333,17.59L14.538,17.59L14.538,18.394L13.333,18.394L13.333,17.59Z" clip-rule="evenodd" fill-rule="evenodd" fill="#F9E813"/>
<path d="M12.698,17.912L14.921,17.912L14.921,18.313L12.698,18.313L12.698,17.912Z" clip-rule="evenodd" fill-rule="evenodd" fill="#060101"/>
<path d="M12.698,18.233L13.903,18.233L13.903,18.635L12.698,18.635L12.698,18.233Z" clip-rule="evenodd" fill-rule="evenodd" fill="#F9E813"/>
<path d="M13.968,18.233L15.173,18.233L15.173,18.635L13.968,18.635L13.968,18.233Z" clip-rule="evenodd" fill-rule="evenodd" fill="#F9E813"/>
<path d="M12.698,19.197L13.502,19.197L13.502,20.402L12.698,20.402L12.698,19.197Z" clip-rule="evenodd" fill-rule="evenodd" fill="#F9E813"/>
<path d="M14.286,19.197L15.089,19.197L15.089,20.402L14.286,20.402L14.286,19.197Z" clip-rule="evenodd" fill-rule="evenodd" fill="#F9E813"/>
<path d="M13.651,19.197L14.052,19.197L14.052,20.402L13.651,20.402L13.651,19.197Z" clip-rule="evenodd" fill-rule="evenodd" fill="#F9E813"/>
<path d="M12.698,18.876L14.921,18.876L14.921,19.277L12.698,19.277L12.698,18.876Z" clip-rule="evenodd" fill-rule="evenodd" fill="#060101"/>
<path d="M12.698,19.839L14.921,19.839L14.921,20.241L12.698,20.241L12.698,19.839Z" clip-rule="evenodd" fill-rule="evenodd" fill="#060101"/>
<path d="M13.016,18.554L13.418,18.554L13.418,18.956L13.016,18.956L13.016,18.554Z" clip-rule="evenodd" fill-rule="evenodd" fill="#F9E813"/>
<path d="M14.286,18.554L14.687,18.554L14.687,18.956L14.286,18.956L14.286,18.554Z" clip-rule="evenodd" fill-rule="evenodd" fill="#F9E813"/>
<path d="M13.651,18.233L14.052,18.233L14.052,19.036L13.651,19.036L13.651,18.233Z" clip-rule="evenodd" fill-rule="evenodd" fill="#F9E813"/>
<path d="M14.182,24.361L15.387,24.361L15.387,25.164L14.182,25.164L14.182,24.361Z" clip-rule="evenodd" fill-rule="evenodd" transform="rotate(-100 14.659 24.682)" fill="#F9E813"/>
<path d="M13.675,24.622L15.897,24.622L15.897,25.024L13.675,25.024L13.675,24.622Z" clip-rule="evenodd" fill-rule="evenodd" transform="rotate(-100 14.786 24.789)" fill="#060101"/>
<path d="M14.148,25.315L15.353,25.315L15.353,25.717L14.148,25.717L14.148,25.315Z" clip-rule="evenodd" fill-rule="evenodd" transform="rotate(-100 14.624 25.482)" fill="#F9E813"/>
<path d="M14.964,24.342L16.169,24.342L16.169,24.744L14.964,24.744L14.964,24.342Z" clip-rule="evenodd" fill-rule="evenodd" transform="rotate(-100 15.441 24.509)" fill="#F9E813"/>
<path d="M15.185,25.944L15.988,25.944L15.988,27.148L15.185,27.148L15.185,25.944Z" clip-rule="evenodd" fill-rule="evenodd" transform="rotate(-100 15.502 26.426)" fill="#F9E813"/>
<path d="M16.205,24.728L17.008,24.728L17.008,25.933L16.205,25.933L16.205,24.728Z" clip-rule="evenodd" fill-rule="evenodd" transform="rotate(-100 16.522 25.21)" fill="#F9E813"/>
<path d="M15.851,25.33L16.252,25.33L16.252,26.534L15.851,26.534L15.851,25.33Z" clip-rule="evenodd" fill-rule="evenodd" transform="rotate(-100 16.017 25.812)" fill="#F9E813"/>
<path d="M14.413,25.242L16.636,25.242L16.636,25.643L14.413,25.643L14.413,25.242Z" clip-rule="evenodd" fill-rule="evenodd" transform="rotate(-100 15.525 25.408)" fill="#060101"/>
<path d="M15.152,25.861L17.374,25.861L17.374,26.263L15.152,26.263L15.152,25.861Z" clip-rule="evenodd" fill-rule="evenodd" transform="rotate(-100 16.263 26.028)" fill="#060101"/>
<path d="M14.709,25.516L15.11,25.516L15.11,25.917L14.709,25.917L14.709,25.516Z" clip-rule="evenodd" fill-rule="evenodd" transform="rotate(-100 14.876 25.682)" fill="#F9E813"/>
<path d="M15.525,24.543L15.927,24.543L15.927,24.944L15.525,24.944L15.525,24.543Z" clip-rule="evenodd" fill-rule="evenodd" transform="rotate(-100 15.692 24.709)" fill="#F9E813"/>
<path d="M14.989,24.768L15.391,24.768L15.391,25.571L14.989,25.571L14.989,24.768Z" clip-rule="evenodd" fill-rule="evenodd" transform="rotate(-100 15.156 25.089)" fill="#F9E813"/>
<path d="M24.548,24.36L25.753,24.36L25.753,25.164L24.548,25.164L24.548,24.36Z" clip-rule="evenodd" fill-rule="evenodd" transform="rotate(100 25.024 24.682)" fill="#F9E813"/>
<path d="M23.785,24.622L26.008,24.622L26.008,25.024L23.785,25.024L23.785,24.622Z" clip-rule="evenodd" fill-rule="evenodd" transform="rotate(100 24.896 24.789)" fill="#060101"/>
<path d="M23.766,24.342L24.971,24.342L24.971,24.744L23.766,24.744L23.766,24.342Z" clip-rule="evenodd" fill-rule="evenodd" transform="rotate(100 24.242 24.509)" fill="#F9E813"/>
<path d="M24.582,25.315L25.787,25.315L25.787,25.717L24.582,25.717L24.582,25.315Z" clip-rule="evenodd" fill-rule="evenodd" transform="rotate(100 25.058 25.482)" fill="#F9E813"/>
<path d="M22.843,24.728L23.646,24.728L23.646,25.932L22.843,25.932L22.843,24.728Z" clip-rule="evenodd" fill-rule="evenodd" transform="rotate(100 23.16 25.21)" fill="#F9E813"/>
<path d="M23.863,25.944L24.666,25.944L24.666,27.148L23.863,27.148L23.863,25.944Z" clip-rule="evenodd" fill-rule="evenodd" transform="rotate(100 24.181 26.426)" fill="#F9E813"/>
<path d="M23.509,25.342L23.91,25.342L23.91,26.547L23.509,26.547L23.509,25.342Z" clip-rule="evenodd" fill-rule="evenodd" transform="rotate(100 23.676 25.824)" fill="#F9E813"/>
<path d="M23.047,25.242L25.269,25.242L25.269,25.643L23.047,25.643L23.047,25.242Z" clip-rule="evenodd" fill-rule="evenodd" transform="rotate(100 24.158 25.408)" fill="#060101"/>
<path d="M22.309,25.861L24.531,25.861L24.531,26.263L22.309,26.263L22.309,25.861Z" clip-rule="evenodd" fill-rule="evenodd" transform="rotate(100 23.42 26.028)" fill="#060101"/>
<path d="M23.834,24.555L24.236,24.555L24.236,24.957L23.834,24.957L23.834,24.555Z" clip-rule="evenodd" fill-rule="evenodd" transform="rotate(100 24.001 24.722)" fill="#F9E813"/>
<path d="M24.651,25.528L25.052,25.528L25.052,25.929L24.651,25.929L24.651,25.528Z" clip-rule="evenodd" fill-rule="evenodd" transform="rotate(100 24.817 25.694)" fill="#F9E813"/>
<path d="M24.37,24.78L24.772,24.78L24.772,25.583L24.37,25.583L24.37,24.78Z" clip-rule="evenodd" fill-rule="evenodd" transform="rotate(100 24.537 25.101)" fill="#F9E813"/>
<path d="M20.931,15.341L18.73,15.341L18.73,16.944C18.73,16.944 18.894,17.771 19.831,17.771C20.768,17.771 20.931,16.944 20.931,16.944L20.931,15.341ZM19.683,15.984C19.683,16.161 19.541,16.305 19.365,16.305C19.19,16.305 19.048,16.161 19.048,15.984C19.048,15.807 19.19,15.663 19.365,15.663C19.541,15.663 19.683,15.807 19.683,15.984ZM19.365,17.59C19.541,17.59 19.683,17.447 19.683,17.269C19.683,17.092 19.541,16.948 19.365,16.948C19.19,16.948 19.048,17.092 19.048,17.269C19.048,17.447 19.19,17.59 19.365,17.59ZM20.635,17.269C20.635,17.447 20.493,17.59 20.317,17.59C20.142,17.59 20,17.447 20,17.269C20,17.092 20.142,16.948 20.317,16.948C20.493,16.948 20.635,17.092 20.635,17.269ZM19.841,16.948C20.017,16.948 20.159,16.804 20.159,16.627C20.159,16.449 20.017,16.305 19.841,16.305C19.666,16.305 19.524,16.449 19.524,16.627C19.524,16.804 19.666,16.948 19.841,16.948ZM20.635,15.984C20.635,16.161 20.493,16.305 20.317,16.305C20.142,16.305 20,16.161 20,15.984C20,15.807 20.142,15.663 20.317,15.663C20.493,15.663 20.635,15.807 20.635,15.984Z" clip-rule="evenodd" fill-rule="evenodd" fill="#013399"/>
<path d="M20.931,18.876L18.73,18.876L18.73,20.478C18.73,20.478 18.894,21.306 19.831,21.306C20.768,21.306 20.931,20.478 20.931,20.478L20.931,18.876ZM19.683,19.518C19.683,19.696 19.541,19.839 19.365,19.839C19.19,19.839 19.048,19.696 19.048,19.518C19.048,19.341 19.19,19.197 19.365,19.197C19.541,19.197 19.683,19.341 19.683,19.518ZM19.365,21.125C19.541,21.125 19.683,20.981 19.683,20.803C19.683,20.626 19.541,20.482 19.365,20.482C19.19,20.482 19.048,20.626 19.048,20.803C19.048,20.981 19.19,21.125 19.365,21.125ZM20.635,20.803C20.635,20.981 20.493,21.125 20.317,21.125C20.142,21.125 20,20.981 20,20.803C20,20.626 20.142,20.482 20.317,20.482C20.493,20.482 20.635,20.626 20.635,20.803ZM19.841,20.482C20.017,20.482 20.159,20.338 20.159,20.161C20.159,19.983 20.017,19.839 19.841,19.839C19.666,19.839 19.524,19.983 19.524,20.161C19.524,20.338 19.666,20.482 19.841,20.482ZM20.635,19.518C20.635,19.696 20.493,19.839 20.317,19.839C20.142,19.839 20,19.696 20,19.518C20,19.341 20.142,19.197 20.317,19.197C20.493,19.197 20.635,19.341 20.635,19.518Z" clip-rule="evenodd" fill-rule="evenodd" fill="#013399"/>
<path d="M23.788,18.876L21.587,18.876L21.587,20.478C21.587,20.478 21.751,21.306 22.688,21.306C23.625,21.306 23.788,20.478 23.788,20.478L23.788,18.876ZM22.54,19.518C22.54,19.696 22.398,19.839 22.222,19.839C22.047,19.839 21.905,19.696 21.905,19.518C21.905,19.341 22.047,19.197 22.222,19.197C22.398,19.197 22.54,19.341 22.54,19.518ZM22.222,21.125C22.398,21.125 22.54,20.981 22.54,20.803C22.54,20.626 22.398,20.482 22.222,20.482C22.047,20.482 21.905,20.626 21.905,20.803C21.905,20.981 22.047,21.125 22.222,21.125ZM23.492,20.803C23.492,20.981 23.35,21.125 23.175,21.125C22.999,21.125 22.857,20.981 22.857,20.803C22.857,20.626 22.999,20.482 23.175,20.482C23.35,20.482 23.492,20.626 23.492,20.803ZM22.699,20.482C22.874,20.482 23.016,20.338 23.016,20.161C23.016,19.983 22.874,19.839 22.699,19.839C22.523,19.839 22.381,19.983 22.381,20.161C22.381,20.338 22.523,20.482 22.699,20.482ZM23.492,19.518C23.492,19.696 23.35,19.839 23.175,19.839C22.999,19.839 22.857,19.696 22.857,19.518C22.857,19.341 22.999,19.197 23.175,19.197C23.35,19.197 23.492,19.341 23.492,19.518Z" clip-rule="evenodd" fill-rule="evenodd" fill="#013399"/>
<path d="M18.074,18.876L15.873,18.876L15.873,20.478C15.873,20.478 16.036,21.306 16.973,21.306C17.91,21.306 18.074,20.478 18.074,20.478L18.074,18.876ZM16.826,19.518C16.826,19.696 16.684,19.839 16.508,19.839C16.333,19.839 16.191,19.696 16.191,19.518C16.191,19.341 16.333,19.197 16.508,19.197C16.684,19.197 16.826,19.341 16.826,19.518ZM16.508,21.125C16.684,21.125 16.826,20.981 16.826,20.803C16.826,20.626 16.684,20.482 16.508,20.482C16.333,20.482 16.191,20.626 16.191,20.803C16.191,20.981 16.333,21.125 16.508,21.125ZM17.778,20.803C17.778,20.981 17.636,21.125 17.46,21.125C17.285,21.125 17.143,20.981 17.143,20.803C17.143,20.626 17.285,20.482 17.46,20.482C17.636,20.482 17.778,20.626 17.778,20.803ZM16.984,20.482C17.16,20.482 17.302,20.338 17.302,20.161C17.302,19.983 17.16,19.839 16.984,19.839C16.809,19.839 16.667,19.983 16.667,20.161C16.667,20.338 16.809,20.482 16.984,20.482ZM17.778,19.518C17.778,19.696 17.636,19.839 17.46,19.839C17.285,19.839 17.143,19.696 17.143,19.518C17.143,19.341 17.285,19.197 17.46,19.197C17.636,19.197 17.778,19.341 17.778,19.518Z" clip-rule="evenodd" fill-rule="evenodd" fill="#013399"/>
<path d="M20.931,22.41L18.73,22.41L18.73,24.012C18.73,24.012 18.894,24.84 19.831,24.84C20.768,24.84 20.931,24.012 20.931,24.012L20.931,22.41ZM19.683,23.052C19.683,23.23 19.541,23.374 19.365,23.374C19.19,23.374 19.048,23.23 19.048,23.052C19.048,22.875 19.19,22.731 19.365,22.731C19.541,22.731 19.683,22.875 19.683,23.052ZM19.365,24.659C19.541,24.659 19.683,24.515 19.683,24.337C19.683,24.16 19.541,24.016 19.365,24.016C19.19,24.016 19.048,24.16 19.048,24.337C19.048,24.515 19.19,24.659 19.365,24.659ZM20.635,24.337C20.635,24.515 20.493,24.659 20.317,24.659C20.142,24.659 20,24.515 20,24.337C20,24.16 20.142,24.016 20.317,24.016C20.493,24.016 20.635,24.16 20.635,24.337ZM19.841,24.016C20.017,24.016 20.159,23.872 20.159,23.695C20.159,23.517 20.017,23.374 19.841,23.374C19.666,23.374 19.524,23.517 19.524,23.695C19.524,23.872 19.666,24.016 19.841,24.016ZM20.635,23.052C20.635,23.23 20.493,23.374 20.317,23.374C20.142,23.374 20,23.23 20,23.052C20,22.875 20.142,22.731 20.317,22.731C20.493,22.731 20.635,22.875 20.635,23.052Z" clip-rule="evenodd" fill-rule="evenodd" fill="#013399"/>
</svg>
