<svg width="958" height="946" viewBox="0 0 958 946" fill="none" xmlns="http://www.w3.org/2000/svg" xmlns:xlink="http://www.w3.org/1999/xlink">
<g opacity="0.1" style="isolation:isolate">
<path d="M793.5,316.593C844.586,316.593 886,264.382 886,199.977C886,135.572 844.586,83.361 793.5,83.361C742.414,83.361 701,135.572 701,199.977C701,264.382 742.414,316.593 793.5,316.593Z" clip-rule="evenodd" fill-rule="evenodd" fill="#FFFFFF"/>
</g>
<g opacity="0.2" style="isolation:isolate">
<path d="M796,405.842C885.122,405.842 957,314.856 957,203.128L955,203.128C955,314.208 883.61,403.842 796,403.842L796,405.842ZM957,203.128C957,91.401 885.122,0.414 796,0.414L796,2.414C883.61,2.414 955,92.049 955,203.128L957,203.128ZM796,0.414C706.879,0.414 635,91.401 635,203.128L637,203.128C637,92.049 708.39,2.414 796,2.414L796,0.414ZM635,203.128C635,314.856 706.879,405.842 796,405.842L796,403.842C708.39,403.842 637,314.208 637,203.128L635,203.128Z" fill="#FFFFFF"/>
</g>
<g opacity="0.1" style="isolation:isolate">
<path d="M159.5,856.179C210.586,856.179 252,803.968 252,739.563C252,675.157 210.586,622.947 159.5,622.947C108.414,622.947 67,675.157 67,739.563C67,803.968 108.414,856.179 159.5,856.179Z" clip-rule="evenodd" fill-rule="evenodd" fill="#FFFFFF"/>
</g>
<g opacity="0.2" style="isolation:isolate">
<path d="M162,945.428C251.122,945.428 323,854.442 323,742.714L321,742.714C321,853.794 249.61,943.428 162,943.428L162,945.428ZM323,742.714C323,630.987 251.122,540 162,540L162,542C249.61,542 321,631.634 321,742.714L323,742.714ZM162,540C72.879,540 1,630.987 1,742.714L3,742.714C3,631.634 74.39,542 162,542L162,540ZM1,742.714C1,854.442 72.879,945.428 162,945.428L162,943.428C74.39,943.428 3,853.794 3,742.714L1,742.714Z" fill="#FFFFFF"/>
</g>
</svg>
