<svg width="956" height="678" viewBox="0 0 956 678" fill="none" xmlns="http://www.w3.org/2000/svg" xmlns:xlink="http://www.w3.org/1999/xlink">
<g opacity="0.1" style="isolation:isolate">
<path d="M791.5,226.164C842.586,226.164 884,188.744 884,142.584C884,96.424 842.586,59.004 791.5,59.004C740.414,59.004 699,96.424 699,142.584C699,188.744 740.414,226.164 791.5,226.164Z" clip-rule="evenodd" fill-rule="evenodd" fill="#FFFFFF"/>
</g>
<g opacity="0.2" style="isolation:isolate">
<path d="M794,290.413C882.82,290.413 955,225.333 955,144.843L953,144.843C953,224.041 881.912,288.413 794,288.413L794,290.413ZM955,144.843C955,64.353 882.82,-0.729 794,-0.729L794,1.271C881.912,1.271 953,65.643 953,144.843L955,144.843ZM794,-0.729C705.18,-0.729 633,64.353 633,144.843L635,144.843C635,65.643 706.089,1.271 794,1.271L794,-0.729ZM633,144.843C633,225.333 705.18,290.413 794,290.413L794,288.413C706.089,288.413 635,224.041 635,144.843L633,144.843Z" fill="#FFFFFF"/>
</g>
<g opacity="0.1" style="isolation:isolate">
<path d="M123.047,627.023C162.958,627.023 195.312,597.963 195.312,562.115C195.312,526.267 162.958,497.207 123.047,497.207C83.136,497.207 50.781,526.267 50.781,562.115C50.781,597.963 83.136,627.023 123.047,627.023Z" clip-rule="evenodd" fill-rule="evenodd" fill="#FFFFFF"/>
</g>
<g opacity="0.2" style="isolation:isolate">
<path d="M125,677.144C194.484,677.144 251,626.527 251,563.869L249,563.869C249,625.226 193.587,675.144 125,675.144L125,677.144ZM251,563.869C251,501.212 194.484,450.596 125,450.596L125,452.596C193.587,452.596 249,502.513 249,563.869L251,563.869ZM125,450.596C55.516,450.596 -1,501.212 -1,563.869L1,563.869C1,502.513 56.413,452.596 125,452.596L125,450.596ZM-1,563.869C-1,626.527 55.516,677.144 125,677.144L125,675.144C56.413,675.144 1,625.226 1,563.869L-1,563.869Z" fill="#FFFFFF"/>
</g>
</svg>
