<svg width="40" height="40" viewBox="0 0 40 40" fill="none" xmlns="http://www.w3.org/2000/svg" xmlns:xlink="http://www.w3.org/1999/xlink">
<path d="M25.167,19.817C25.167,22.624 22.866,24.923 20,24.923L20,27.923C24.497,27.923 28.167,24.307 28.167,19.817L25.167,19.817ZM20,24.923C17.133,24.923 14.833,22.624 14.833,19.817L11.833,19.817C11.833,24.307 15.503,27.923 20,27.923L20,24.923ZM14.833,19.817C14.833,17.01 17.133,14.711 20,14.711L20,11.711C15.503,11.711 11.833,15.328 11.833,19.817L14.833,19.817ZM20,14.711C22.866,14.711 25.167,17.01 25.167,19.817L28.167,19.817C28.167,15.328 24.497,11.711 20,11.711L20,14.711Z" fill="#FFD6DD"/>
<path d="M5,18.317C4.172,18.317 3.5,18.989 3.5,19.817C3.5,20.646 4.172,21.317 5,21.317L5,18.317ZM6.667,21.317C7.495,21.317 8.167,20.646 8.167,19.817C8.167,18.989 7.495,18.317 6.667,18.317L6.667,21.317ZM21.5,4.954C21.5,4.126 20.828,3.454 20,3.454C19.172,3.454 18.5,4.126 18.5,4.954L21.5,4.954ZM18.5,6.606C18.5,7.434 19.172,8.106 20,8.106C20.828,8.106 21.5,7.434 21.5,6.606L18.5,6.606ZM33.333,18.317C32.505,18.317 31.833,18.989 31.833,19.817C31.833,20.646 32.505,21.317 33.333,21.317L33.333,18.317ZM35,21.317C35.828,21.317 36.5,20.646 36.5,19.817C36.5,18.989 35.828,18.317 35,18.317L35,21.317ZM21.5,33.028C21.5,32.2 20.828,31.528 20,31.528C19.172,31.528 18.5,32.2 18.5,33.028L21.5,33.028ZM18.5,34.68C18.5,35.508 19.172,36.18 20,36.18C20.828,36.18 21.5,35.508 21.5,34.68L18.5,34.68ZM10.389,8.182C9.801,7.599 8.851,7.604 8.268,8.192C7.685,8.781 7.689,9.73 8.278,10.313L10.389,8.182ZM9.444,11.469C10.033,12.053 10.982,12.048 11.566,11.46C12.149,10.871 12.144,9.922 11.556,9.338L9.444,11.469ZM31.722,10.313C32.311,9.73 32.315,8.781 31.732,8.192C31.149,7.604 30.199,7.599 29.611,8.182L31.722,10.313ZM28.444,9.338C27.856,9.922 27.851,10.871 28.434,11.46C29.018,12.048 29.967,12.053 30.556,11.469L28.444,9.338ZM30.556,28.165C29.967,27.582 29.018,27.586 28.434,28.174C27.851,28.763 27.856,29.713 28.444,30.296L30.556,28.165ZM29.611,31.452C30.199,32.035 31.149,32.03 31.732,31.442C32.315,30.853 32.311,29.904 31.722,29.321L29.611,31.452ZM11.556,30.296C12.144,29.713 12.149,28.763 11.566,28.174C10.982,27.586 10.033,27.582 9.444,28.165L11.556,30.296ZM8.278,29.321C7.689,29.904 7.685,30.853 8.268,31.442C8.851,32.03 9.801,32.035 10.389,31.452L8.278,29.321ZM5,21.317L6.667,21.317L6.667,18.317L5,18.317L5,21.317ZM6.667,18.317L5,18.317L5,21.317L6.667,21.317L6.667,18.317ZM18.5,4.954L18.5,6.606L21.5,6.606L21.5,4.954L18.5,4.954ZM21.5,6.606L21.5,4.954L18.5,4.954L18.5,6.606L21.5,6.606ZM33.333,21.317L35,21.317L35,18.317L33.333,18.317L33.333,21.317ZM35,18.317L33.333,18.317L33.333,21.317L35,21.317L35,18.317ZM18.5,33.028L18.5,34.68L21.5,34.68L21.5,33.028L18.5,33.028ZM21.5,34.68L21.5,33.028L18.5,33.028L18.5,34.68L21.5,34.68ZM8.278,10.313L9.444,11.469L11.556,9.338L10.389,8.182L8.278,10.313ZM11.556,9.338L10.389,8.182L8.278,10.313L9.444,11.469L11.556,9.338ZM29.611,8.182L28.444,9.338L30.556,11.469L31.722,10.313L29.611,8.182ZM30.556,11.469L31.722,10.313L29.611,8.182L28.444,9.338L30.556,11.469ZM28.444,30.296L29.611,31.452L31.722,29.321L30.556,28.165L28.444,30.296ZM31.722,29.321L30.556,28.165L28.444,30.296L29.611,31.452L31.722,29.321ZM9.444,28.165L8.278,29.321L10.389,31.452L11.556,30.296L9.444,28.165Z" fill="#FFD6DD"/>
</svg>
