<svg width="284" height="290" viewBox="0 0 284 290" fill="none" xmlns="http://www.w3.org/2000/svg" xmlns:xlink="http://www.w3.org/1999/xlink">
<g opacity="0.1" style="isolation:isolate">
<path d="M138.797,224.561C183.817,224.561 220.312,187.361 220.312,141.473C220.312,95.585 183.817,58.386 138.797,58.386C93.777,58.386 57.281,95.585 57.281,141.473C57.281,187.361 93.777,224.561 138.797,224.561Z" clip-rule="evenodd" fill-rule="evenodd" fill="#FFFFFF"/>
</g>
<g opacity="0.2" style="isolation:isolate">
<path d="M141,288.438C219.442,288.438 283,223.626 283,143.719L281,143.719C281,222.558 218.302,286.438 141,286.438L141,288.438ZM283,143.719C283,63.811 219.442,-1 141,-1L141,1C218.302,1 281,64.879 281,143.719L283,143.719ZM141,-1C62.558,-1 -1,63.811 -1,143.719L1,143.719C1,64.879 63.698,1 141,1L141,-1ZM-1,143.719C-1,223.626 62.558,288.438 141,288.438L141,286.438C63.698,286.438 1,222.558 1,143.719L-1,143.719Z" fill="#FFFFFF"/>
</g>
</svg>
