<svg width="286" height="290" viewBox="0 0 286 290" fill="none" xmlns="http://www.w3.org/2000/svg" xmlns:xlink="http://www.w3.org/1999/xlink">
<g opacity="0.1" style="isolation:isolate">
<path d="M140.797,224.561C185.817,224.561 222.312,187.361 222.312,141.473C222.312,95.585 185.817,58.386 140.797,58.386C95.777,58.386 59.281,95.585 59.281,141.473C59.281,187.361 95.777,224.561 140.797,224.561Z" clip-rule="evenodd" fill-rule="evenodd" fill="#FFFFFF"/>
</g>
<g opacity="0.2" style="isolation:isolate">
<path d="M143,288.438C221.442,288.438 285,223.626 285,143.719L283,143.719C283,222.558 220.302,286.438 143,286.438L143,288.438ZM285,143.719C285,63.811 221.442,-1 143,-1L143,1C220.302,1 283,64.879 283,143.719L285,143.719ZM143,-1C64.558,-1 1,63.811 1,143.719L3,143.719C3,64.879 65.698,1 143,1L143,-1ZM1,143.719C1,223.626 64.558,288.438 143,288.438L143,286.438C65.698,286.438 3,222.558 3,143.719L1,143.719Z" fill="#FFFFFF"/>
</g>
</svg>
