<svg width="158" height="170" viewBox="0 0 158 170" fill="none" xmlns="http://www.w3.org/2000/svg" xmlns:xlink="http://www.w3.org/1999/xlink">
<g opacity="0.1" style="isolation:isolate">
<path d="M77.797,131.915C102.382,131.915 122.312,110.394 122.312,83.847C122.312,57.299 102.382,35.778 77.797,35.778C53.212,35.778 33.281,57.299 33.281,83.847C33.281,110.394 53.212,131.915 77.797,131.915Z" clip-rule="evenodd" fill-rule="evenodd" fill="#FFFFFF"/>
</g>
<g opacity="0.2" style="isolation:isolate">
<path d="M79,169.291C122.149,169.291 157,131.544 157,85.146L155,85.146C155,130.587 120.903,167.291 79,167.291L79,169.291ZM157,85.146C157,38.747 122.149,1 79,1L79,3C120.903,3 155,39.704 155,85.146L157,85.146ZM79,1C35.851,1 1,38.747 1,85.146L3,85.146C3,39.704 37.097,3 79,3L79,1ZM1,85.146C1,131.544 35.851,169.291 79,169.291L79,167.291C37.097,167.291 3,130.587 3,85.146L1,85.146Z" fill="#FFFFFF"/>
</g>
</svg>
