<svg width="158" height="168" viewBox="0 0 158 168" fill="none" xmlns="http://www.w3.org/2000/svg" xmlns:xlink="http://www.w3.org/1999/xlink">
<g opacity="0.1" style="isolation:isolate">
<path d="M77.797,130.727C102.382,130.727 122.312,109.403 122.312,83.098C122.312,56.793 102.382,35.469 77.797,35.469C53.212,35.469 33.281,56.793 33.281,83.098C33.281,109.403 53.212,130.727 77.797,130.727Z" clip-rule="evenodd" fill-rule="evenodd" fill="#FFFFFF"/>
</g>
<g opacity="0.2" style="isolation:isolate">
<path d="M79,167.771C122.141,167.771 157,130.373 157,84.386L155,84.386C155,129.398 120.911,165.771 79,165.771L79,167.771ZM157,84.386C157,38.398 122.141,1 79,1L79,3C120.911,3 155,39.373 155,84.386L157,84.386ZM79,1C35.859,1 1,38.398 1,84.386L3,84.386C3,39.373 37.089,3 79,3L79,1ZM1,84.386C1,130.373 35.859,167.771 79,167.771L79,165.771C37.089,165.771 3,129.398 3,84.386L1,84.386Z" fill="#FFFFFF"/>
</g>
</svg>
