<svg width="48" height="48" viewBox="0 0 48 48" fill="none" xmlns="http://www.w3.org/2000/svg" xmlns:xlink="http://www.w3.org/1999/xlink">
<path d="M16.649,36.474C17.463,37.221 18.728,37.166 19.474,36.351C20.221,35.537 20.166,34.272 19.351,33.526L16.649,36.474ZM6,24L4.649,22.526C4.235,22.905 4,23.439 4,24C4,24.561 4.235,25.095 4.649,25.474L6,24ZM19.351,14.474C20.166,13.728 20.221,12.463 19.474,11.649C18.728,10.834 17.463,10.779 16.649,11.526L19.351,14.474ZM19.351,33.526L7.351,22.526L4.649,25.474L16.649,36.474L19.351,33.526ZM7.351,25.474L19.351,14.474L16.649,11.526L4.649,22.526L7.351,25.474Z" fill="#FFFFFF"/>
<line x1="10" y1="22" x2="42" y2="22" stroke="#FFFFFF" stroke-width="2" stroke-miterlimit="3.999327" stroke-linecap="round" stroke-linejoin="round"/>
</svg>
