<svg width="32" height="32" viewBox="0 0 32 32" fill="none" xmlns="http://www.w3.org/2000/svg" xmlns:xlink="http://www.w3.org/1999/xlink">
<path d="M26,16C26,21.523 21.523,26 16,26L16,30C23.732,30 30,23.732 30,16L26,16ZM16,26C10.477,26 6,21.523 6,16L2,16C2,23.732 8.268,30 16,30L16,26ZM6,16C6,10.477 10.477,6 16,6L16,2C8.268,2 2,8.268 2,16L6,16ZM16,6C21.523,6 26,10.477 26,16L30,16C30,8.268 23.732,2 16,2L16,6Z" fill="#9087E5"/>
<path d="M18,9.333C18,8.229 17.105,7.333 16,7.333C14.895,7.333 14,8.229 14,9.333L18,9.333ZM16,16L14,16C14,16.53 14.211,17.039 14.586,17.414L16,16ZM18.586,21.414C19.367,22.195 20.633,22.195 21.414,21.414C22.195,20.633 22.195,19.367 21.414,18.586L18.586,21.414ZM14,9.333L14,16L18,16L18,9.333L14,9.333ZM14.586,17.414L18.586,21.414L21.414,18.586L17.414,14.586L14.586,17.414Z" fill="#9087E5"/>
</svg>
