<svg width="98" height="102" viewBox="0 0 98 102" fill="none" xmlns="http://www.w3.org/2000/svg" xmlns:xlink="http://www.w3.org/1999/xlink">
<path d="M48,12.992C36.754,12.992 27.636,22.11 27.636,33.356L27.636,35.429C25.573,35.775 24,37.57 24,39.732L24,44.719C24,46.925 25.637,48.749 27.762,49.042C28.557,56.183 33.045,62.21 39.273,65.168L39.273,71.862C23.87,72.691 11.636,85.443 11.636,101.053L84.364,101.053C84.364,85.443 72.13,72.691 56.727,71.862L56.727,65.168C62.955,62.21 67.443,56.183 68.238,49.042C70.363,48.749 72,46.925 72,44.719L72,39.732C72,37.57 70.427,35.775 68.364,35.429L68.364,33.356C68.364,22.11 59.247,12.992 48,12.992Z" clip-rule="evenodd" fill-rule="evenodd" fill="#D0C6AC"/>
<rect  x="0" y="12.992" width="96" height="88.06" fill="#C9824B"/>
<path d="M27.636,46.764L27.636,49.651C27.636,60.898 36.753,70.015 48,70.015C59.247,70.015 68.364,60.898 68.364,49.651L68.364,46.764C68.364,58.011 59.247,67.128 48,67.128C36.753,67.128 27.636,58.011 27.636,46.764Z" clip-rule="evenodd" fill-rule="evenodd" fill="#000000" fill-opacity="0.1"/>
<path d="M48.182,80.058C54.91,80.058 60.364,76.587 60.364,72.306C60.364,72.305 60.364,72.304 60.364,72.302C74.01,74.761 84.364,86.698 84.364,101.053L11.636,101.053C11.636,86.571 22.174,74.55 36,72.239C36,72.261 36,72.284 36,72.306C36,76.587 41.454,80.058 48.182,80.058Z" clip-rule="evenodd" fill-rule="evenodd" fill="#E6E6E6"/>
<rect  x="0" y="61.353" width="96" height="39.699" fill="#C2FF5F"/>
<g opacity="0.6" style="isolation:isolate">
<path d="M62.595,72.847C62.595,78.212 56.142,82.561 48.182,82.561C40.222,82.561 33.769,78.212 33.769,72.847C33.769,67.483 40.222,63.134 48.182,63.134C56.142,63.134 62.595,67.483 62.595,72.847Z" fill="#000000" fill-opacity="0.16"/>
</g>
<path d="M42.909,54.135C42.909,56.074 45.148,57.383 48,57.383C50.852,57.383 53.091,56.074 53.091,54.135C53.091,53.737 52.746,53.414 52.364,53.414C51.894,53.414 51.684,53.74 51.636,54.135C51.185,55.196 50.067,55.837 48,55.94C45.933,55.837 44.815,55.196 44.364,54.135C44.316,53.74 44.106,53.414 43.636,53.414C43.254,53.414 42.909,53.737 42.909,54.135Z" fill="#0C092A"/>
<path d="M43.636,46.917C43.636,48.512 45.59,49.805 48,49.805L48,49.805C50.41,49.805 52.364,48.512 52.364,46.917Z" clip-rule="evenodd" fill-rule="evenodd" fill="#000000" fill-opacity="0.16"/>
<path d="M40.727,40.421C40.727,41.617 39.75,42.586 38.545,42.586C37.34,42.586 36.364,41.617 36.364,40.421C36.364,39.225 37.34,38.256 38.545,38.256C39.75,38.256 40.727,39.225 40.727,40.421Z" fill="#0C092A"/>
<path d="M59.636,40.421C59.636,41.617 58.66,42.586 57.455,42.586C56.25,42.586 55.273,41.617 55.273,40.421C55.273,39.225 56.25,38.256 57.455,38.256C58.66,38.256 59.636,39.225 59.636,40.421Z" fill="#0C092A"/>
<path d="M33.446,35.775C33.989,32.339 38.567,29.994 41.878,31.507C42.242,31.674 42.674,31.515 42.842,31.153C43.01,30.791 42.851,30.363 42.486,30.196C38.309,28.287 32.704,31.158 32.009,35.552C31.946,35.945 32.218,36.315 32.614,36.377C33.011,36.438 33.383,36.169 33.446,35.775Z" fill="#0C092A"/>
<path d="M54.537,35.775C55.08,32.339 59.658,29.994 62.969,31.507C63.333,31.674 63.765,31.515 63.933,31.153C64.101,30.791 63.942,30.363 63.577,30.196C59.4,28.287 53.795,31.158 53.1,35.552C53.037,35.945 53.309,36.315 53.705,36.377C54.102,36.438 54.474,36.169 54.537,35.775Z" transform="rotate(360 58.545 32.99)" fill="#0C092A"/>
<path d="M47.999,50.143C47.09,48.939 43.539,48.429 40.99,48.889C37.479,49.523 35.992,53.329 36.442,54.02C36.723,54.449 37.344,54.306 37.991,54.156C38.287,54.088 38.588,54.018 38.864,54.002C39.404,53.97 40.079,54.081 40.844,54.206C42.656,54.504 44.979,54.885 47.254,53.662C47.549,53.504 47.803,53.272 47.999,52.995C48.196,53.272 48.449,53.504 48.744,53.662C51.019,54.885 53.343,54.504 55.154,54.206C55.92,54.081 56.594,53.97 57.134,54.002C57.41,54.018 57.711,54.088 58.007,54.156C58.654,54.306 59.276,54.449 59.556,54.02C60.007,53.329 58.519,49.523 55.009,48.889C52.46,48.429 48.909,48.939 47.999,50.143Z" clip-rule="evenodd" fill-rule="evenodd" fill="#0C092A"/>
<rect  x="17.455" y="25.985" width="61.091" height="54.857" fill="#0C092A"/>
<path d="M67.894,20.255C68.219,21.427 68.681,24.568 67.868,25.608C67.597,25.956 65.744,24.981 64.971,24.557C64.519,24.309 64.093,24.073 63.687,23.849C58.263,20.847 56.51,19.877 46.998,20.015C36.775,20.162 29.77,24.917 29.376,25.403C29.102,25.741 28.752,26.645 28.464,29.161C28.373,29.958 28.348,30.954 28.322,31.944C28.268,34.082 28.214,36.189 27.502,36.185C26.615,36.18 26.422,27.601 26.805,24.197C26.819,24.07 26.844,23.918 26.87,23.755C26.951,23.247 27.05,22.625 26.926,22.27C26.87,22.11 26.73,22.012 26.586,21.912C26.36,21.756 26.126,21.593 26.194,21.176C26.271,20.705 26.591,20.66 26.908,20.616C27.115,20.587 27.321,20.559 27.457,20.412C27.867,19.968 27.621,19.738 27.341,19.474C27.175,19.319 26.998,19.151 26.936,18.922C26.705,18.07 27.308,17.805 27.913,17.54C27.959,17.52 28.005,17.499 28.051,17.479C28.301,17.367 28.452,17.329 28.568,17.299C28.783,17.244 28.876,17.221 29.253,16.813C28.478,16.249 28.198,15.48 29.259,15.068C29.462,14.989 29.812,14.993 30.168,14.997C30.601,15.002 31.042,15.006 31.236,14.862C31.29,14.822 31.324,14.67 31.355,14.536C31.377,14.44 31.397,14.353 31.421,14.32C31.912,13.623 31.87,13.093 31.813,12.375C31.805,12.268 31.796,12.157 31.789,12.041C31.741,11.305 31.748,10.63 32.635,10.556C33.001,10.526 33.324,10.697 33.643,10.866C33.84,10.971 34.036,11.075 34.239,11.129C34.557,11.213 34.639,11.286 34.72,11.285C34.788,11.284 34.856,11.23 35.068,11.085C35.5,10.79 35.544,10.346 35.59,9.897C35.629,9.505 35.669,9.11 35.969,8.81C36.541,8.236 36.986,8.583 37.421,8.922C37.655,9.105 37.887,9.285 38.134,9.319C39.06,9.447 39.248,8.935 39.451,8.385C39.585,8.022 39.725,7.642 40.086,7.417C40.751,7.002 41.048,7.4 41.335,7.782C41.516,8.025 41.693,8.261 41.956,8.282C42.321,8.31 42.867,7.887 43.352,7.512C43.648,7.283 43.921,7.071 44.115,6.992C44.94,6.654 45.54,7.015 46.146,7.38C46.658,7.689 47.175,8 47.838,7.898C47.946,7.881 48.046,7.865 48.14,7.85C48.954,7.716 49.27,7.664 50.12,8.197C50.735,8.581 51.037,8.525 51.48,8.443C51.7,8.403 51.955,8.355 52.301,8.353C52.705,8.35 53.023,8.532 53.33,8.708C53.582,8.852 53.827,8.993 54.105,9.021C54.258,9.037 54.409,8.966 54.562,8.893C54.715,8.82 54.871,8.746 55.035,8.756C55.7,8.796 56.013,9.294 56.328,9.796C56.571,10.183 56.815,10.572 57.222,10.753C57.811,11.015 58.472,10.843 59.103,10.678C59.388,10.604 59.666,10.531 59.93,10.501C61.37,10.333 61.121,11.211 60.857,12.146C60.741,12.555 60.622,12.974 60.64,13.323C61.058,13.419 61.478,13.267 61.899,13.116C62.296,12.973 62.693,12.829 63.085,12.897C64.321,13.108 63.905,14.348 63.61,15.228C63.601,15.255 63.592,15.281 63.583,15.307C63.814,15.303 64.142,15.234 64.511,15.155C65.552,14.935 66.918,14.645 67.34,15.563C67.514,15.942 67.345,16.397 67.18,16.839C67.066,17.145 66.955,17.445 66.959,17.711C66.969,18.262 67.217,18.756 67.467,19.251C67.632,19.579 67.798,19.909 67.894,20.255ZM67.404,26.565C67.496,26.629 67.559,26.672 67.575,26.681C68.214,27.038 68.72,30.615 68.744,31.982C68.76,32.826 68.773,36.045 67.874,35.767C67.6,35.682 67.182,33.978 67.123,32.981C67.063,31.984 66.492,28.591 65.617,27.03C65.569,26.944 65.5,26.844 65.426,26.736C65.19,26.392 64.903,25.974 65.091,25.745C65.354,25.425 65.61,25.537 65.913,25.67C65.964,25.693 66.017,25.716 66.071,25.738C66.387,25.864 67.079,26.341 67.404,26.565Z" clip-rule="evenodd" fill-rule="evenodd" fill="#2E3257"/>
<rect  x="0" y="0" width="96" height="101.053" fill="#0C092A"/>
</svg>
