<svg width="318" height="258" viewBox="0 0 318 258" fill="none" xmlns="http://www.w3.org/2000/svg" xmlns:xlink="http://www.w3.org/1999/xlink">
<g filter="url(#filter1_1951)">
<path d="M197.897,64.661C199.549,58.888 207.729,58.888 209.381,64.661L209.381,64.661C220.738,104.353 252.423,134.961 292.484,144.941L294.14,145.353C300.332,146.896 300.332,155.697 294.14,157.24L292.484,157.652C252.423,167.632 220.738,198.24 209.381,237.932L209.381,237.932C207.729,243.705 199.549,243.705 197.897,237.932L197.897,237.932C186.54,198.24 154.855,167.632 114.794,157.652L113.138,157.24C106.946,155.697 106.946,146.896 113.138,145.353L114.794,144.941C154.855,134.961 186.54,104.353 197.897,64.661L197.897,64.661Z" transform="rotate(0 203.639 151.296)" fill="#6A5AE0" stroke="#000000" stroke-width="1" stroke-miterlimit="3.999327"/>
<path d="M129.472,19.993C131.118,14.242 139.268,14.242 140.913,19.993L140.913,19.993C152.228,59.537 183.795,90.031 223.707,99.973L225.357,100.384C231.527,101.921 231.527,110.69 225.357,112.227L223.707,112.638C183.795,122.58 152.228,153.074 140.913,192.618L140.913,192.618C139.268,198.369 131.118,198.369 129.472,192.618L129.472,192.618C118.157,153.074 86.59,122.58 46.678,112.638L45.029,112.227C38.859,110.69 38.859,101.921 45.029,100.384L46.678,99.973C86.59,90.031 118.157,59.537 129.472,19.993L129.472,19.993Z" transform="rotate(0 135.193 106.306)" stroke="#000000" stroke-width="1" stroke-miterlimit="3.999327"/>
<path d="M223.487,16.761C223.725,14.583 226.917,14.583 227.155,16.761L227.155,16.761C227.948,24.004 233.733,29.773 240.988,30.453L240.988,30.453C243.17,30.657 243.17,33.843 240.988,34.047L240.988,34.047C233.733,34.727 227.948,40.496 227.155,47.739L227.155,47.739C226.917,49.917 223.725,49.917 223.487,47.739L223.487,47.739C222.694,40.496 216.909,34.727 209.654,34.047L209.654,34.047C207.472,33.843 207.472,30.657 209.654,30.453L209.654,30.453C216.909,29.773 222.694,24.004 223.487,16.761L223.487,16.761Z" transform="rotate(0 225.321 32.25)" fill="#FFFFFF" stroke="#000000" stroke-width="1" stroke-miterlimit="3.999327"/>
<path d="M20.141,63.464C20.287,62.142 22.226,62.142 22.372,63.464L22.372,63.464C22.857,67.859 26.37,71.361 30.772,71.77L30.772,71.77C32.098,71.893 32.098,73.829 30.772,73.952L30.772,73.952C26.37,74.361 22.857,77.863 22.372,82.258L22.372,82.258C22.226,83.58 20.287,83.58 20.141,82.258L20.141,82.258C19.657,77.863 16.143,74.361 11.741,73.952L11.741,73.952C10.415,73.829 10.415,71.893 11.741,71.77L11.741,71.77C16.143,71.361 19.657,67.859 20.141,63.464L20.141,63.464Z" transform="rotate(0 21.257 72.861)" fill="#FFFFFF" stroke="#000000" stroke-width="1" stroke-miterlimit="3.999327"/>
</g>
<defs>
<filter id="filter1_1951" x="-4" y="-4" width="167" height="137" filterUnits="userSpaceOnUse" color-interpolation-filters="sRGB">
<feFlood flood-opacity="0" result="BackgroundImageFix"/>
<feColorMatrix in="SourceAlpha" type="matrix" values="0 0 0 0 0 0 0 0 0 0 0 0 0 0 0 0 0 0 127 0" result="hardAlpha"/>
<feMorphology radius="0" operator="dilate" in="SourceAlpha" result="0dropshadow"/>
<feOffset dx="0" dy="4"/>
<feGaussianBlur stdDeviation="2"/>
<feComposite in2="hardAlpha" operator="out"/>
<feColorMatrix type="matrix" values="0 0 0 0 0 0 0 0 0 0 0 0 0 0 0 0 0 0 0.25 0"/>
<feBlend mode="normal" in2="BackgroundImageFix" result="0dropshadow"/>
<feBlend mode="normal" in="SourceGraphic" in2="0dropshadow" result="shape"/>
</filter>
</defs>
</svg>
