<svg width="318" height="276" viewBox="0 0 318 276" fill="none" xmlns="http://www.w3.org/2000/svg" xmlns:xlink="http://www.w3.org/1999/xlink">
<g filter="url(#filter1_2110)">
<path d="M197.602,70.274C199.255,64.095 208.023,64.095 209.676,70.274L209.676,70.274C220.849,112.047 253.53,144.672 295.314,155.806L295.314,155.806C301.504,157.456 301.504,166.248 295.314,167.897L295.314,167.897C253.53,179.032 220.849,211.657 209.676,253.43L209.676,253.43C208.023,259.61 199.255,259.61 197.602,253.43L197.602,253.43C186.429,211.657 153.748,179.032 111.965,167.897L111.965,167.897C105.774,166.248 105.774,157.456 111.965,155.806L111.965,155.806C153.748,144.672 186.429,112.047 197.602,70.274L197.602,70.274Z" transform="rotate(0 203.639 161.852)" fill="#6A5AE0" stroke="#000000" stroke-width="1" stroke-miterlimit="3.999327"/>
<path d="M129.178,22.485C130.825,16.329 139.56,16.329 141.207,22.485L141.207,22.485C152.339,64.103 184.898,96.607 226.525,107.699L226.525,107.699C232.693,109.343 232.693,118.102 226.525,119.745L226.525,119.745C184.898,130.838 152.339,163.342 141.207,204.958L141.207,204.958C139.56,211.116 130.825,211.116 129.178,204.958L129.178,204.958C118.047,163.342 85.487,130.838 43.86,119.745L43.86,119.745C37.692,118.102 37.692,109.343 43.86,107.699L43.86,107.699C85.487,96.607 118.047,64.103 129.178,22.485L129.178,22.485Z" transform="rotate(0 135.193 113.722)" stroke="#000000" stroke-width="1" stroke-miterlimit="3.999327"/>
<path d="M223.445,18.341C223.676,16.084 226.966,16.084 227.197,18.341L227.197,18.341C227.969,25.894 233.95,31.872 241.505,32.629L241.505,32.629C243.762,32.855 243.762,36.145 241.505,36.371L241.505,36.371C233.95,37.128 227.969,43.106 227.197,50.659L227.197,50.659C226.966,52.916 223.676,52.916 223.445,50.659L223.445,50.659C222.672,43.106 216.691,37.128 209.136,36.371L209.136,36.371C206.879,36.145 206.879,32.855 209.136,32.629L209.136,32.629C216.691,31.872 222.672,25.894 223.445,18.341L223.445,18.341Z" transform="rotate(0 225.321 34.5)" fill="#FFFFFF" stroke="#000000" stroke-width="1" stroke-miterlimit="3.999327"/>
<path d="M20.116,68.14C20.257,66.769 22.256,66.769 22.398,68.14L22.398,68.14C22.87,72.723 26.503,76.353 31.088,76.809L31.088,76.809C32.459,76.945 32.459,78.944 31.088,79.08L31.088,79.08C26.503,79.536 22.87,83.166 22.398,87.749L22.398,87.749C22.256,89.119 20.257,89.119 20.116,87.749L20.116,87.749C19.643,83.166 16.01,79.536 11.425,79.08L11.425,79.08C10.054,78.944 10.054,76.945 11.425,76.809L11.425,76.809C16.01,76.353 19.643,72.723 20.116,68.14L20.116,68.14Z" transform="rotate(0 21.257 77.944)" fill="#FFFFFF" stroke="#000000" stroke-width="1" stroke-miterlimit="3.999327"/>
</g>
<defs>
<filter id="filter1_2110" x="-4" y="-4" width="167" height="146" filterUnits="userSpaceOnUse" color-interpolation-filters="sRGB">
<feFlood flood-opacity="0" result="BackgroundImageFix"/>
<feColorMatrix in="SourceAlpha" type="matrix" values="0 0 0 0 0 0 0 0 0 0 0 0 0 0 0 0 0 0 127 0" result="hardAlpha"/>
<feMorphology radius="0" operator="dilate" in="SourceAlpha" result="0dropshadow"/>
<feOffset dx="0" dy="4"/>
<feGaussianBlur stdDeviation="2"/>
<feComposite in2="hardAlpha" operator="out"/>
<feColorMatrix type="matrix" values="0 0 0 0 0 0 0 0 0 0 0 0 0 0 0 0 0 0 0.25 0"/>
<feBlend mode="normal" in2="BackgroundImageFix" result="0dropshadow"/>
<feBlend mode="normal" in="SourceGraphic" in2="0dropshadow" result="shape"/>
</filter>
</defs>
</svg>
