<svg width="766" height="262" viewBox="0 0 766 262" fill="none" xmlns="http://www.w3.org/2000/svg" xmlns:xlink="http://www.w3.org/1999/xlink">
<mask id="mask_0_1_2497" style="mask-type:alpha" maskUnits="userSpaceOnUse" x="0" y="0" width="146" height="71">
<rect  x="0" y="0" width="292" height="142" rx="40" fill="#6A5AE0"/>
</mask>
<g mask="url(#mask_0_1_2497)">
<g opacity="0.2">
<path d="M118.76,161.907L118,163.756L118.76,161.907ZM528.608,93.72L529.072,91.774L528.608,93.72ZM16,4C14.068,4.517 14.068,4.518 14.069,4.519C14.069,4.52 14.069,4.522 14.07,4.524C14.071,4.529 14.073,4.535 14.075,4.544C14.08,4.561 14.086,4.585 14.095,4.618C14.113,4.682 14.139,4.778 14.173,4.904C14.242,5.155 14.345,5.526 14.482,6.011C14.756,6.979 15.166,8.399 15.711,10.214C16.8,13.843 18.431,19.053 20.601,25.39C24.939,38.061 31.436,55.254 40.073,73.334C48.706,91.406 59.501,110.415 72.448,126.687C85.385,142.946 100.565,156.591 118,163.756L119.521,160.057C102.952,153.247 88.285,140.165 75.578,124.197C62.883,108.241 52.238,89.52 43.682,71.61C35.13,53.707 28.688,36.664 24.385,24.094C22.234,17.811 20.618,12.65 19.542,9.064C19.003,7.27 18.6,5.871 18.331,4.922C18.197,4.447 18.097,4.086 18.03,3.844C17.997,3.722 17.972,3.631 17.956,3.571C17.948,3.541 17.942,3.518 17.938,3.504C17.936,3.496 17.934,3.491 17.933,3.488C17.933,3.486 17.933,3.485 17.932,3.484C17.932,3.483 17.932,3.483 16,4ZM118,163.756C146.894,175.632 177.948,174.942 210.403,167.941C242.832,160.946 276.868,147.599 311.762,133.976C381.76,106.648 455.236,78.242 528.142,95.665L529.072,91.774C454.734,74.01 380.044,103.024 310.308,130.25C275.334,143.904 241.614,157.117 209.56,164.031C177.534,170.94 147.384,171.509 119.521,160.057L118,163.756ZM528.142,95.665C587.152,109.767 645.7,151.073 689.614,189.036C711.544,207.992 729.766,226.066 742.506,239.398C748.876,246.064 753.872,251.544 757.274,255.354C758.974,257.258 760.278,258.746 761.152,259.756C761.59,260.26 761.922,260.646 762.142,260.904C762.254,261.034 762.336,261.13 762.392,261.196C762.418,261.228 762.44,261.252 762.452,261.268C762.46,261.276 762.464,261.282 762.468,261.286C762.47,261.288 762.47,261.288 762.472,261.29C762.472,261.29 762.472,261.29 764,260C765.528,258.71 765.528,258.708 765.526,258.708C765.526,258.706 765.524,258.704 765.522,258.702C765.518,258.698 765.512,258.69 765.504,258.682C765.49,258.664 765.468,258.638 765.44,258.604C765.382,258.536 765.296,258.436 765.182,258.304C764.956,258.038 764.618,257.646 764.174,257.134C763.286,256.112 761.972,254.61 760.258,252.69C756.828,248.85 751.802,243.338 745.398,236.636C732.592,223.234 714.278,205.068 692.23,186.01C648.194,147.941 589.046,106.107 529.072,91.774L528.142,95.665Z" fill="#FFFFFF"/>
</g>
<g opacity="0.2">
<path d="M99,134L98.24,135.85L99,134ZM442,77L442.464,75.055L442,77ZM13,2C11.068,2.517 11.068,2.518 11.069,2.519C11.069,2.52 11.069,2.522 11.07,2.524C11.071,2.528 11.072,2.533 11.074,2.54C11.078,2.555 11.084,2.575 11.091,2.603C11.106,2.657 11.128,2.738 11.157,2.843C11.215,3.054 11.301,3.365 11.416,3.771C11.646,4.582 11.989,5.77 12.446,7.289C13.358,10.327 14.725,14.686 16.542,19.988C20.175,30.588 25.617,44.973 32.853,60.101C40.084,75.222 49.131,91.135 59.987,104.764C70.833,118.379 83.578,129.831 98.24,135.85L99.76,132.15C85.964,126.486 73.731,115.597 63.116,102.272C52.511,88.96 43.615,73.334 36.461,58.375C29.311,43.424 23.924,29.19 20.326,18.691C18.527,13.443 17.176,9.133 16.276,6.138C15.826,4.641 15.489,3.473 15.265,2.681C15.153,2.285 15.069,1.983 15.013,1.782C14.986,1.681 14.965,1.605 14.951,1.555C14.945,1.53 14.94,1.511 14.936,1.499C14.935,1.493 14.934,1.489 14.933,1.486C14.932,1.485 14.932,1.484 14.932,1.483C14.932,1.483 14.932,1.483 13,2ZM98.24,135.85C122.505,145.811 148.568,145.225 175.764,139.366C202.934,133.512 231.446,122.343 260.642,110.958C319.244,88.105 380.636,64.409 441.536,78.945L442.464,75.055C380.136,60.177 317.528,84.48 259.188,107.231C229.912,118.648 201.717,129.682 174.922,135.455C148.154,141.223 122.995,141.689 99.76,132.15L98.24,135.85ZM441.536,78.945C490.844,90.715 539.794,125.201 576.534,156.927C594.878,172.766 610.12,187.866 620.776,199.006C626.104,204.576 630.284,209.152 633.128,212.336C634.55,213.926 635.64,215.168 636.372,216.012C636.738,216.432 637.014,216.754 637.198,216.97C637.29,217.078 637.36,217.158 637.406,217.212C637.428,217.24 637.446,217.26 637.456,217.272C637.462,217.28 637.466,217.284 637.47,217.288C637.47,217.288 637.472,217.29 637.472,217.29C637.472,217.292 637.472,217.292 639,216C640.528,214.708 640.526,214.708 640.526,214.706C640.524,214.706 640.524,214.704 640.522,214.702C640.518,214.698 640.514,214.692 640.508,214.686C640.494,214.67 640.476,214.648 640.452,214.62C640.404,214.564 640.332,214.478 640.236,214.368C640.046,214.146 639.764,213.818 639.392,213.388C638.648,212.532 637.546,211.276 636.11,209.67C633.238,206.458 629.028,201.846 623.668,196.241C612.946,185.033 597.61,169.84 579.148,153.9C542.284,122.068 492.734,87.054 442.464,75.055L441.536,78.945Z" fill="#FFFFFF"/>
</g>
</g>
</svg>
