<svg width="80" height="80" viewBox="0 0 80 80" fill="none" xmlns="http://www.w3.org/2000/svg" xmlns:xlink="http://www.w3.org/1999/xlink">
<path d="M35.986,2.329C38.468,0.889 41.532,0.889 44.014,2.329L57.3,10.036L70.617,17.688C73.106,19.118 74.637,21.771 74.632,24.641L74.6,40L74.632,55.359C74.637,58.229 73.106,60.882 70.617,62.312L57.3,69.964L44.014,77.671C41.532,79.111 38.468,79.111 35.986,77.671L22.7,69.964L9.383,62.312C6.894,60.882 5.363,58.229 5.368,55.359L5.4,40L5.368,24.641C5.363,21.771 6.894,19.118 9.383,17.688L22.7,10.036L35.986,2.329Z" fill="#FFD54B"/>
<path d="M40,30L46.667,40L55,33.333L51.667,50L28.333,50L25,33.333L33.333,40L40,30Z" fill="#FFFFFF" stroke="#FFFFFF" stroke-width="1.5" stroke-miterlimit="3.999327" stroke-linecap="round" stroke-linejoin="round"/>
</svg>
