<svg width="344" height="280" viewBox="0 0 344 280" fill="none" xmlns="http://www.w3.org/2000/svg" xmlns:xlink="http://www.w3.org/1999/xlink">
<g opacity="0.2" style="isolation:isolate">
<path d="M171.281,279.772C266.228,279.772 343.562,217.102 343.562,139.386L341.562,139.386C341.562,215.63 265.528,277.772 171.281,277.772L171.281,279.772ZM343.562,139.386C343.562,61.67 266.228,-1 171.281,-1L171.281,1C265.528,1 341.562,63.14 341.562,139.386L343.562,139.386ZM171.281,-1C76.335,-1 -1,61.67 -1,139.386L1,139.386C1,63.14 77.035,1 171.281,1L171.281,-1ZM-1,139.386C-1,217.102 76.335,279.772 171.281,279.772L171.281,277.772C77.035,277.772 1,215.63 1,139.386L-1,139.386Z" fill="#FFFFFF"/>
</g>
</svg>
