<svg width="346" height="280" viewBox="0 0 346 280" fill="none" xmlns="http://www.w3.org/2000/svg" xmlns:xlink="http://www.w3.org/1999/xlink">
<g opacity="0.2" style="isolation:isolate">
<path d="M173.281,279.772C268.228,279.772 345.562,217.102 345.562,139.386L343.562,139.386C343.562,215.63 267.528,277.772 173.281,277.772L173.281,279.772ZM345.562,139.386C345.562,61.67 268.228,-1 173.281,-1L173.281,1C267.528,1 343.562,63.14 343.562,139.386L345.562,139.386ZM173.281,-1C78.335,-1 1,61.67 1,139.386L3,139.386C3,63.14 79.035,1 173.281,1L173.281,-1ZM1,139.386C1,217.102 78.335,279.772 173.281,279.772L173.281,277.772C79.035,277.772 3,215.63 3,139.386L1,139.386Z" fill="#FFFFFF"/>
</g>
</svg>
