<svg width="48" height="32" viewBox="0 0 48 32" fill="none" xmlns="http://www.w3.org/2000/svg" xmlns:xlink="http://www.w3.org/1999/xlink">
<path d="M35.826,20L35.826,14L29.522,14L29.522,10L35.826,10L35.826,4L40.029,4L40.029,10L46.333,10L46.333,14L40.029,14L40.029,20L35.826,20ZM16.913,16C14.601,16 12.623,15.217 10.976,13.65C9.33,12.083 8.507,10.2 8.507,8C8.507,5.8 9.33,3.917 10.976,2.35C12.623,0.783 14.601,0 16.913,0C19.225,0 21.203,0.783 22.85,2.35C24.496,3.917 25.319,5.8 25.319,8C25.319,10.2 24.496,12.083 22.85,13.65C21.203,15.217 19.225,16 16.913,16ZM0.101,32L0.101,26.4C0.101,25.267 0.408,24.225 1.021,23.275C1.634,22.325 2.448,21.6 3.464,21.1C5.635,20.067 7.842,19.292 10.083,18.775C12.325,18.258 14.601,18 16.913,18C19.225,18 21.501,18.258 23.743,18.775C25.984,19.292 28.191,20.067 30.362,21.1C31.378,21.6 32.192,22.325 32.805,23.275C33.418,24.225 33.725,25.267 33.725,26.4L33.725,32L0.101,32ZM4.304,28L29.522,28L29.522,26.4C29.522,26.033 29.425,25.7 29.233,25.4C29.04,25.1 28.786,24.867 28.471,24.7C26.58,23.8 24.671,23.125 22.745,22.675C20.818,22.225 18.874,22 16.913,22C14.952,22 13.008,22.225 11.082,22.675C9.155,23.125 7.246,23.8 5.355,24.7C5.04,24.867 4.786,25.1 4.593,25.4C4.401,25.7 4.304,26.033 4.304,26.4L4.304,28ZM16.913,12C18.069,12 19.058,11.608 19.881,10.825C20.704,10.042 21.116,9.1 21.116,8C21.116,6.9 20.704,5.958 19.881,5.175C19.058,4.392 18.069,4 16.913,4C15.757,4 14.768,4.392 13.945,5.175C13.122,5.958 12.71,6.9 12.71,8C12.71,9.1 13.122,10.042 13.945,10.825C14.768,11.608 15.757,12 16.913,12Z" fill="#FFFFFF"/>
</svg>
