<svg width="16" height="28" viewBox="0 0 16 28" fill="none" xmlns="http://www.w3.org/2000/svg" xmlns:xlink="http://www.w3.org/1999/xlink">
<path d="M0.586,24.586C-0.195,25.367 -0.195,26.633 0.586,27.414C1.367,28.195 2.633,28.195 3.414,27.414L0.586,24.586ZM14,14L15.414,15.414C16.195,14.633 16.195,13.367 15.414,12.586L14,14ZM3.414,0.586C2.633,-0.195 1.367,-0.195 0.586,0.586C-0.195,1.367 -0.195,2.633 0.586,3.414L3.414,0.586ZM3.414,27.414L15.414,15.414L12.586,12.586L0.586,24.586L3.414,27.414ZM15.414,12.586L3.414,0.586L0.586,3.414L12.586,15.414L15.414,12.586Z" fill="#6A5AE0"/>
</svg>
