<svg width="42" height="38" viewBox="0 0 42 38" fill="none" xmlns="http://www.w3.org/2000/svg" xmlns:xlink="http://www.w3.org/1999/xlink">
<path d="M31.2,36L28.4,33.2L34.55,27L29.4,27L29.4,23L41.4,23L41.4,35L37.4,35L37.4,29.8L31.2,36ZM8.4,38C7.833,38 7.258,37.825 6.675,37.475C6.092,37.125 5.667,36.717 5.4,36.25L0.4,27.5C0.133,27.033 0,26.458 0,25.775C0,25.092 0.133,24.517 0.4,24.05L13.4,1.75C13.667,1.283 14.092,0.875 14.675,0.525C15.258,0.175 15.833,0 16.4,0L26.4,0C26.967,0 27.542,0.175 28.125,0.525C28.708,0.875 29.133,1.283 29.4,1.75L38.5,17.35C37.733,17.15 36.942,17.017 36.125,16.95C35.308,16.883 34.5,16.917 33.7,17.05L26.1,4L16.7,4L4,25.8L8.7,34L24.5,34C24.867,34.767 25.292,35.483 25.775,36.15C26.258,36.817 26.817,37.433 27.45,38L8.4,38ZM11.9,29L10.45,26.45L19.6,10.5L23.2,10.5L28.25,19.3C27.683,19.733 27.158,20.208 26.675,20.725C26.192,21.242 25.767,21.783 25.4,22.35L21.4,15.4L15.9,25L24.1,25C23.867,25.633 23.692,26.283 23.575,26.95C23.458,27.617 23.4,28.3 23.4,29L11.9,29Z" fill="#9087E5"/>
</svg>
